<?xml version="1.0" standalone="no"?>
<!DOCTYPE svg PUBLIC "-//W3C//DTD SVG 1.1//EN" "http://www.w3.org/Graphics/SVG/1.1/DTD/svg11.dtd" >
<!--
2013-9-30: Created.
-->
<svg>
<metadata>
Created by iconfont
</metadata>
<defs>

<font id="iconfont" horiz-adv-x="1024" >
  <font-face
    font-family="iconfont"
    font-weight="500"
    font-stretch="normal"
    units-per-em="1024"
    ascent="896"
    descent="-128"
  />
    <missing-glyph />
    
    <glyph glyph-name="sheyinglvxing" unicode="&#58880;" d="M963.584 654.336q25.6 0 43.008-16.896t17.408-42.496l0-572.416q0-24.576-17.408-42.496t-43.008-17.92l-904.192 0q-24.576 0-41.984 17.92t-17.408 42.496l0 572.416q0 25.6 17.408 42.496t41.984 16.896l221.184 0 20.48 61.44q0 12.288 14.336 28.16t33.28 29.696 39.424 23.04 32.768 9.216l210.944 0q12.288 0 32.768-9.216t39.936-23.04 33.792-29.696 14.336-28.16l19.456-61.44 191.488 0zM489.472 715.776q-16.384 0-27.136-8.704t-10.752-22.016q0-12.288 10.752-21.504t27.136-9.216l74.752 0q16.384 0 27.136 9.216t10.752 21.504q0 13.312-10.752 22.016t-27.136 8.704l-74.752 0zM512 82.944q49.152 0 93.184 18.944t76.8 51.712 51.712 76.8 18.944 94.208-18.944 93.696-51.712 75.776-76.8 51.2-93.184 18.944q-50.176 0-94.208-18.944t-76.8-51.2-51.712-75.776-18.944-93.696 18.944-94.208 51.712-76.8 76.8-51.712 94.208-18.944zM512 504.832q37.888 0 70.656-14.336t57.344-38.912 38.4-57.344 13.824-69.632q0-37.888-13.824-71.168t-38.4-57.856-57.344-38.912-70.656-14.336-70.656 14.336-57.344 38.912-38.912 57.856-14.336 71.168q0 36.864 14.336 69.632t38.912 57.344 57.344 38.912 70.656 14.336z"  horiz-adv-x="1024" />

    
    <glyph glyph-name="chongwu" unicode="&#58881;" d="M1024 683.008q0-70.656-46.08-121.856 46.08-89.088 46.08-193.536 0-96.256-39.936-181.248t-109.568-147.968-162.816-99.328-199.68-36.352-199.68 36.352-162.304 99.328-109.568 147.968-40.448 181.248q0 104.448 46.08 193.536-46.08 51.2-46.08 121.856 0 37.888 13.824 71.168t37.376 58.368 55.808 39.424 68.096 14.336q43.008 0 78.848-18.432t59.392-50.176q46.08 17.408 96.256 26.624t102.4 9.216 102.4-9.216 96.256-26.624q24.576 31.744 59.904 50.176t78.336 18.432q36.864 0 68.608-14.336t55.296-39.424 37.376-58.368 13.824-71.168zM205.824 268.288q10.24 0 18.944 10.24t15.36 28.672 10.24 42.496 3.584 51.712-3.584 51.712-10.24 41.984-15.36 28.16-18.944 10.24q-9.216 0-17.92-10.24t-15.36-28.16-10.752-41.984-4.096-51.712 4.096-51.712 10.752-42.496 15.36-28.672 17.92-10.24zM512-31.744q53.248 0 99.84 13.312t81.408 35.84 54.784 52.736 19.968 65.024q0 33.792-19.968 64t-54.784 52.736-81.408 35.84-99.84 13.312-99.84-13.312-81.408-35.84-54.784-52.736-19.968-64q0-34.816 19.968-65.024t54.784-52.736 81.408-35.84 99.84-13.312zM818.176 268.288q10.24 0 18.944 10.24t15.36 28.672 10.24 42.496 3.584 51.712-3.584 51.712-10.24 41.984-15.36 28.16-18.944 10.24q-9.216 0-17.92-10.24t-15.36-28.16-10.752-41.984-4.096-51.712 4.096-51.712 10.752-42.496 15.36-28.672 17.92-10.24zM512 235.52q39.936 0 68.096-9.728t28.16-24.064-28.16-24.064-68.096-9.728-68.096 9.728-28.16 24.064 28.16 24.064 68.096 9.728z"  horiz-adv-x="1024" />

    
    <glyph glyph-name="DIY" unicode="&#58882;" d="M917.471562 145.468043q15.358771-36.861051 15.358771-74.74602t-14.334853-72.698184-40.956723-62.459003-63.482921-44.028478q-32.765379-13.310935-66.042717-14.846812t-64.506839 7.679386-58.363331 27.645788-46.588273 46.076314q-3.071754 4.095672-5.631549 8.703304t-5.631549 9.727222q-2.047836 2.047836-3.071754 4.095672-8.191345 24.574034-16.894648 61.947044t-8.703304 79.353652q0 10.239181-3.583713 26.62187t-9.727222 36.349092-13.822894 41.980642-15.87073 43.516519q-17.406607-43.00456-30.205584-84.473242t-12.798976-67.066635q0-39.932805-7.679386-76.793856t-15.87073-61.435085l-2.047836-4.095672-2.047836-4.095672q-18.430526-32.765379-46.076314-55.291577t-60.923126-34.301256-69.114471-10.75114-70.650348 15.358771q-36.861051 15.358771-63.99488 43.516519t-40.956723 62.459003-13.822894 72.698184 15.358771 75.257979q20.478362 49.148068 59.899208 78.841693t88.568914 37.884969q-1.023918 0-1.023918 1.023918l0-1.023918 3.071754 0q17.406607 2.047836 34.813215 2.047836t35.837133-4.095672q30.717543-6.143509 50.171986-5.631549t35.325174 12.798976 31.741461 38.908887 39.420846 71.674266q-4.095672 8.191345-6.655468 14.334853t-4.607631 11.263099q-3.071754 5.11959-4.095672 9.215263-65.530758 74.74602-107.511399 135.669146t-65.530758 109.559235-32.765379 85.49716-8.191345 63.482921q2.047836 63.482921 47.100232 93.176546l226.285897-437.213023 225.261979 437.213023q45.052396-30.717543 46.076314-94.200464 0-26.62187-8.703304-63.482921t-32.765379-85.49716-65.530758-110.071194-105.975522-136.181106q-1.023918-4.095672-4.095672-8.191345l-5.11959-10.239181q-3.071754-6.143509-6.143509-13.310935 22.526198-45.052396 38.396928-70.650348t31.741461-37.884969 35.837133-12.798976 51.707863 5.631549q17.406607 4.095672 35.325174 4.095672t35.325174-2.047836q1.023918 0 2.047836 1.023918l-1.023918-1.023918q49.148068-8.191345 88.568914-37.884969t59.899208-77.817775zM351.24486 25.669626q8.191345 19.454444 8.191345 39.932805t-7.679386 39.420846-22.014239 33.789297-33.789297 24.062075q-20.478362 8.191345-40.956723 8.191345t-39.420846-7.679386-34.301256-22.014239-24.574034-33.789297q-8.191345-20.478362-8.191345-40.956723t7.679386-38.908887 22.014239-33.789297 34.813215-23.550116 41.468683-8.191345 39.420846 7.679386 33.789297 21.50228 23.550116 34.301256zM778.218703-24.50236q20.478362 8.191345 34.813215 22.526198t22.014239 32.765379 7.679386 38.908887-8.191345 40.956723q-17.406607 39.932805-57.339413 55.803536t-80.889529-0.511959q-20.478362-8.191345-34.813215-23.550116t-22.014239-33.789297-7.679386-38.908887 8.191345-39.932805 23.550116-33.789297 33.789297-22.014239 39.420846-7.679386 41.468683 9.215263z"  horiz-adv-x="1024" />

    
    <glyph glyph-name="meishi" unicode="&#58883;" d="M680.96 349.184l38.912-444.416-569.344 260.096-150.528 477.184 165.888-70.656q-6.144-9.216-9.216-19.456-5.12-24.576 12.8-46.592t47.616-28.16q26.624-5.12 49.664 5.632t31.232 31.232l160.768-69.632q-10.24-12.288-13.312-24.576-5.12-25.6 12.8-46.592t47.616-27.136q28.672-6.144 52.736 6.144t29.184 35.84zM431.104 234.496q8.192 28.672-10.24 55.808t-52.224 36.352q-9.216 3.072-17.408 3.072-17.408 4.096-32.256 0t-25.088-14.336q-20.48-12.288-26.624-34.816-8.192-29.696 10.24-56.32t52.224-35.84q16.384-5.12 33.28-4.096t30.72 7.168 23.552 17.408 13.824 25.6zM960.512 808.96q15.36-36.864 31.744-92.16t24.576-123.904 4.608-148.48-28.16-166.4-75.776-177.152-136.192-180.736l-37.888 436.224q18.432 14.336 52.736 48.128t68.608 89.6 61.952 133.632 33.792 181.248zM900.096 860.16q0-104.448-24.064-183.296t-55.808-134.656-64.512-89.088-49.152-46.592q-5.12 2.048-30.208 12.8t-64 27.648-88.576 38.4-103.936 45.056-109.568 47.104-105.472 45.568-92.672 39.936-70.144 30.208l179.2 35.84 0-6.144q5.12-19.456 27.648-28.16t52.224-2.56 47.616 23.552 13.824 36.864l-2.048 5.12 216.064 44.032 1.024-5.12q4.096-18.432 27.136-27.648t52.736-3.072 47.104 24.064 13.312 36.352l-1.024 3.072 183.296 36.864 0-6.144zM561.152 581.632q31.744 0 53.76 12.288t22.016 29.696-22.016 30.208-53.76 12.8-53.248-12.8-21.504-30.208 21.504-29.696 53.248-12.288z"  horiz-adv-x="1024" />

    
    <glyph glyph-name="qinggan" unicode="&#58884;" d="M542.72 743.424q45.056 62.464 100.352 92.16t112.128 30.72 110.592-23.04 95.232-68.608 67.072-106.496 25.6-136.704q0-77.824-29.184-145.408t-74.24-125.952-99.328-108.544-104.448-91.136q-34.816-28.672-61.952-50.176t-47.616-38.912-36.352-30.72-29.184-24.576q-8.192 6.144-14.336 19.456-5.12 11.264-9.728 32.768t-4.608 55.296q0 44.032 4.608 70.144t9.728 40.448q6.144 16.384 14.336 21.504 13.312 11.264 30.72 25.088t44.032 35.328q27.648 22.528 56.832 49.664t53.76 58.88 40.448 68.608 15.872 79.872q0 49.152-20.48 88.576t-51.712 62.976-69.632 28.672-75.264-12.288q-7.168-17.408-21.504-29.184t-32.768-15.872q-3.072-5.12-6.656-9.728t-7.68-10.752q-8.192 13.312-14.336 20.48-19.456 4.096-33.792 15.872t-21.504 29.184q-36.864 17.408-74.752 12.288t-69.632-29.184-51.712-63.488-19.968-89.6q0-41.984 15.872-78.848t40.448-68.096 54.272-58.368 56.32-49.664q25.6-21.504 43.008-35.84t30.72-25.6q8.192-5.12 14.336-21.504 5.12-14.336 10.24-39.936t5.12-69.632q0-32.768-5.12-53.76t-10.24-33.28q-6.144-14.336-14.336-21.504-13.312 11.264-29.184 24.576t-36.352 30.208-47.104 38.912-61.44 51.712q-49.152 41.984-103.936 91.648t-99.84 107.52-74.752 124.928-29.696 144.896q0 74.752 25.6 137.216t67.072 107.008 95.744 69.12 111.104 23.552 112.128-30.72 100.352-92.16q10.24 2.048 15.36 2.048t15.36-2.048z"  horiz-adv-x="1054" />

    
    <glyph glyph-name="muying" unicode="&#58885;" d="M820.224 402.432q17.408-17.408 17.408-43.52t-17.408-44.544l-422.912-423.936q-19.456-17.408-45.568-17.408t-43.52 17.408l-289.792 289.792q-18.432 18.432-18.432 44.032t18.432 45.056l423.936 422.912q18.432 18.432 44.032 18.432t44.032-18.432zM507.904 536.576q9.216 9.216 9.216 22.528t-9.216 21.504q-9.216 9.216-22.016 9.216t-22.016-9.216l-311.296-311.296q-9.216-9.216-9.216-22.528t9.216-22.528 22.016-9.216 22.016 9.216zM919.552 481.28q14.336-14.336 14.336-33.792t-14.336-33.792q-13.312-14.336-32.768-14.336t-33.792 14.336l-311.296 311.296q-14.336 14.336-14.336 33.792t14.336 33.792q13.312 14.336 32.768 14.336t33.792-14.336zM1009.664 814.08q-14.336-13.312-33.28-13.312t-33.28 13.312q19.456-20.48 28.672-46.08t7.168-54.272-14.336-56.832-33.792-52.736l0-1.024q10.24-9.216 10.24-22.016t-10.24-22.016q-9.216-9.216-22.528-9.216t-22.528 9.216l-199.68 199.68q-8.192 9.216-8.192 22.528t9.216 22.528q8.192 10.24 21.504 10.24t22.528-10.24l0-1.024q24.576 22.528 53.248 34.816t57.344 13.824 54.784-7.168 46.592-28.16q-14.336 14.336-14.336 33.28t14.336 32.256q14.336 14.336 33.28 14.336t33.28-14.336q13.312-14.336 13.824-33.792t-13.824-33.792z"  horiz-adv-x="1024" />

    
    <glyph glyph-name="jiaju" unicode="&#58886;" d="M1024 414.72q0-29.696-10.24-51.2t-25.088-41.472-30.208-40.96-24.576-49.664q-3.072-8.192-5.632-26.112t-5.12-42.496-5.12-53.76-4.608-57.856q-5.12-67.584-10.24-148.48 0-9.216-6.144-15.36-5.12-6.144-17.408-10.752t-35.84-4.608q-24.576 0-41.472 4.608t-28.16 10.752q-12.288 6.144-21.504 15.36l0 29.696-481.28 0 0-29.696q-9.216-9.216-21.504-15.36-11.264-6.144-28.16-10.752t-40.448-4.608q-24.576 0-36.864 4.608t-17.408 10.752q-6.144 6.144-6.144 15.36-5.12 80.896-9.216 148.48-2.048 28.672-4.608 57.856t-5.12 53.76-5.12 42.496-5.632 26.112q-10.24 28.672-25.6 49.664t-30.208 40.96-25.088 41.472-10.24 51.2q0 58.368 41.984 89.6t112.64 31.232q24.576 0 41.984-8.704t30.208-22.528 20.992-31.744 13.312-37.376q-5.12 32.768-15.872 62.464t-33.28 48.128q-11.264 9.216-26.112 17.408t-31.744 15.36-33.792 13.312-30.208 9.216l0 9.216q0 10.24 0.512 33.28t10.24 51.2 33.28 58.88 70.656 55.808 121.344 40.96 185.856 15.872q110.592 0 184.832-15.872t121.344-40.96 71.168-55.808 33.792-58.88 10.24-51.2 0.512-33.28l0-9.216q-13.312-3.072-30.208-8.704t-33.792-12.288-32.256-15.36-25.6-18.944q-17.408-17.408-28.672-45.056 13.312 14.336 33.792 24.576t52.224 10.24q71.68 0 113.152-31.232t41.472-89.6zM752.64 293.888q13.312 0 22.016 8.704t8.704 20.992q0 13.312-8.704 22.016t-22.016 8.704q0 6.144-18.944 16.384t-51.712 19.968-76.288 16.896-93.696 7.168-93.696-7.168-76.288-16.896-51.712-19.968-18.944-16.384q-12.288 0-20.992-8.704t-8.704-22.016q0-12.288 8.704-20.992t20.992-8.704q33.792 16.384 72.704 29.696 32.768 11.264 74.752 20.48t87.04 10.24l2.048 0q46.08-1.024 89.6-10.24t78.336-20.48q40.96-13.312 76.8-29.696z"  horiz-adv-x="1024" />

    
    <glyph glyph-name="meifa" unicode="&#58887;" d="M929.792 53.248q19.456 11.264 36.352 6.656t29.184-18.432 19.456-33.792 7.168-40.448-7.68-37.888-24.064-25.6q-2.048-8.192-28.672-15.36-22.528-6.144-71.68-11.264t-140.288-4.096q-6.144-1.024-26.624-0.512t-47.104 5.12-55.808 15.36-52.736 29.696-37.888 48.64-11.264 72.704q-3.072 15.36-9.728 31.744t-6.144 38.4 14.336 51.2 53.76 69.12q15.36 25.6 11.264 45.056-3.072 17.408-24.064 30.72t-76.288 13.312q-58.368 4.096-94.208 27.648-15.36 10.24-28.16 25.088t-17.92 37.376-1.536 52.224 20.992 68.608q5.12 34.816-6.144 59.392-5.12 10.24-13.312 18.944t-21.504 14.336-32.768 6.656-47.104-5.12q2.048-10.24 2.048-23.552 0-11.264-1.024-28.672t-6.144-39.936q-6.144-23.552-10.752-40.448t-12.288-30.208-21.504-25.6-39.424-26.624q1.024-3.072 4.096-7.168 5.12-7.168 14.336-12.288 11.264-5.12 26.112-9.216t17.92-12.288q2.048-4.096 0-9.216t-4.608-10.752-4.608-10.752-1.024-8.192q2.048-6.144 6.144-7.168t4.096-3.072q-1.024 0-2.048-1.024-2.048-2.048-3.072-4.096-3.072-6.144-1.536-9.216t3.584-5.12 5.12-4.608 3.072-7.68q-5.12-22.528-2.048-40.96 2.048-15.36 11.776-29.696t33.28-16.384l174.08 0q25.6-49.152 35.84-101.376 4.096-22.528 4.608-47.104t-4.608-50.688-16.896-51.712-33.28-50.176q-31.744-18.432-69.632-25.6-32.768-6.144-76.288-3.072t-94.72 28.672q-20.48-14.336-37.888-13.312-15.36 0-29.696 14.848t-22.528 57.856q-25.6 26.624-29.696 50.176-2.048 10.24 0.512 20.48t12.8 19.456 28.672 17.408 48.128 13.312q25.6 16.384 29.696 34.816 4.096 16.384-13.312 37.888t-76.8 48.128q-58.368 35.84-78.848 84.992-9.216 20.48-10.752 46.08t9.728 56.32 37.376 66.56 73.216 75.776q11.264 8.192 18.432 20.48 6.144 11.264 10.24 28.16t1.024 41.472q-27.648 52.224-29.696 99.328-1.024 19.456 3.584 40.448t17.92 39.936 36.864 34.304 61.44 25.6q26.624 18.432 53.248 25.6 23.552 6.144 49.664 3.072t47.616-28.672q55.296 21.504 109.568 27.648 22.528 3.072 47.616 2.048t50.176-7.168 48.128-18.432 43.52-33.792q63.488-3.072 111.616-41.984 20.48-16.384 39.424-42.496t33.28-64.512 21.504-90.624 4.096-120.832q67.584-66.56 98.304-131.072 13.312-27.648 19.456-57.856t0.512-59.904-26.624-58.368-61.952-53.248q-26.624-3.072-46.08-14.336-17.408-9.216-31.744-27.136t-12.288-48.64q-1.024-17.408 4.096-29.696 5.12-11.264 17.408-20.48t38.912-10.24q6.144 7.168 9.216 12.288 2.048 5.12 1.024 9.728t-10.24 8.704q-5.12 14.336-3.072 26.624 1.024 11.264 8.192 20.48t24.576 12.288q-1.024 0 0.512 0.512t-0.512-0.512z"  horiz-adv-x="1024" />

    
    <glyph glyph-name="meirong" unicode="&#58888;" d="M811.008 794.624q61.44-52.224 97.28-131.072t35.84-187.392q0-79.872-20.48-161.28t-56.32-156.16l-29.696 39.936q-10.24 10.24-20.48 1.024-9.216-12.288-1.024-23.552l36.864-46.08q-30.72-55.296-69.12-102.912t-83.456-81.92-95.232-53.76-103.424-19.456q-52.224 0-101.888 18.944t-93.696 52.224-82.432 79.36-69.12 100.352l41.984 46.08q4.096 4.096 4.096 10.24t-5.12 10.24q-4.096 4.096-10.24 4.096t-10.24-5.12l-34.816-36.864q-37.888 75.776-59.392 159.232t-21.504 165.376q0 108.544 35.84 187.392t98.304 131.072l32.768-35.84q5.12-4.096 10.752-4.608t10.752 4.608q5.12 4.096 5.632 9.728t-3.584 10.752l-32.768 34.816q58.368 40.96 130.56 61.44t154.112 20.48q82.944 0 155.136-20.48t130.56-63.488l-31.744-39.936q-8.192-12.288 0-23.552 12.288-9.216 20.48 1.024zM285.696 413.696q44.032 0 74.752 22.016t30.72 53.76q0 30.72-30.72 52.736t-74.752 22.016-74.752-22.016-30.72-52.736q0-31.744 30.72-53.76t74.752-22.016zM496.64 52.224q44.032 0 74.752 13.312t30.72 31.744q0 19.456-30.72 32.256t-74.752 12.8-74.752-12.8-30.72-32.256q0-18.432 30.72-31.744t74.752-13.312zM707.584 413.696q44.032 0 74.752 22.016t30.72 53.76q0 30.72-30.72 52.736t-74.752 22.016-74.752-22.016-30.72-52.736q0-31.744 30.72-53.76t74.752-22.016z"  horiz-adv-x="1024" />

    
    <glyph glyph-name="shuma" unicode="&#58889;" d="M812.032 896q25.6 0 43.52-17.408t17.92-41.984l0-905.216q0-25.6-17.92-42.496t-43.52-16.896l-602.112 0q-24.576 0-41.984 16.896t-17.408 42.496l0 905.216q0 24.576 17.408 41.984t41.984 17.408l602.112 0zM406.528 836.608q-15.36 0-15.36-16.384 0-5.12 4.096-10.24t11.264-5.12l181.248 0q6.144 0 10.752 5.12t4.608 10.24q0 7.168-4.608 11.776t-10.752 4.608l-181.248 0zM512-98.304q24.576 0 43.008 17.92t18.432 42.496q0 25.6-18.432 43.008t-43.008 17.408q-25.6 0-43.008-17.408t-17.408-43.008q0-24.576 17.408-42.496t43.008-17.92zM812.032 685.056q0 25.6-17.408 43.008t-41.984 17.408l-482.304 0q-25.6 0-43.008-17.408t-17.408-43.008l0-571.392q0-25.6 17.408-43.52t43.008-17.92l482.304 0q24.576 0 41.984 17.92t17.408 43.52l0 571.392z"  horiz-adv-x="1024" />

    
    <glyph glyph-name="shishang" unicode="&#58890;" d="M921.6 687.104q17.408-24.576 9.216-71.68-3.072-20.48-12.8-47.104t-28.16-61.44-47.616-78.336-72.192-96.768q-7.168-22.528-11.264-41.984-3.072-17.408-2.56-35.328t11.776-30.208q7.168-8.192 19.968-18.944t27.136-28.16 28.16-42.496 23.552-61.44 12.8-86.016-4.096-115.2l-716.8 0q-8.192 65.536-4.608 115.2t13.824 85.504 24.576 60.928 28.672 41.984 26.624 28.16 18.432 20.48q8.192 12.288 9.216 29.696t-1.024 34.816q-3.072 19.456-8.192 40.96-44.032 53.248-74.752 96.768t-50.688 78.848-30.72 62.464-14.848 47.616q-11.264 48.128 5.12 73.728 57.344 30.72 104.448 42.496t81.92 13.824q40.96 2.048 73.728-5.12 20.48 66.56 47.104 98.816t51.2 44.544q28.672 14.336 59.392 11.264 28.672 3.072 56.32-11.264 23.552-12.288 49.152-45.056t46.08-99.328q30.72 7.168 70.656 5.12 33.792-2.048 79.872-13.824t101.376-43.52z"  horiz-adv-x="1024" />

    
    <glyph glyph-name="yundonghuwai" unicode="&#58891;" d="M1024 399.36q-82.944 10.24-167.936 53.248t-158.72 116.736-116.224 158.72-53.76 167.936q95.232-3.072 184.832-39.936t162.304-109.568 110.08-162.304 39.424-184.832zM464.896 893.952q11.264-95.232 57.856-190.976t129.536-178.688 178.688-130.048 190.976-58.368q-8.192-87.04-44.544-167.424t-102.912-146.944-146.944-102.912-167.424-44.544q-11.264 95.232-58.368 190.976t-130.048 178.688-178.688 129.536-190.976 57.856q8.192 87.04 45.056 167.936t102.4 147.456q66.56 65.536 147.456 102.4t167.936 45.056zM0 368.64q82.944-11.264 167.936-53.76t158.72-116.224 116.736-158.72 53.248-167.936q-95.232 2.048-184.832 39.424t-162.304 110.08-109.568 162.304-39.936 184.832z"  horiz-adv-x="1024" />

    
    <glyph glyph-name="nanzhuang" unicode="&#58892;" d="M899.072 796.672q9.216-13.312 17.92-48.128t16.384-81.92 13.824-100.352 11.264-102.912 9.216-90.112 6.144-60.928q4.096-30.72 7.168-70.656t5.632-79.872 4.096-75.264 2.56-56.832q-13.312-16.384-30.208-25.6t-34.304-11.264-34.304 2.56-30.208 16.896q-1.024 10.24-3.584 33.28t-6.144 53.76-8.192 66.56-8.704 71.68q-11.264 83.968-23.552 184.32-7.168-37.888-11.264-74.752-4.096-31.744-6.656-66.56t-0.512-62.464q1.024-18.432 3.072-29.184t4.608-19.968 5.12-21.504 5.12-34.304 5.12-56.832 4.608-90.112q-11.264-24.576-50.688-42.496t-88.576-29.696-97.28-16.896-74.752-5.12q-18.432 0-46.08 2.56t-60.416 7.168-66.048 12.288-61.952 17.92-49.664 24.064-28.16 30.208q2.048 55.296 5.12 90.112t5.632 56.832 5.12 34.304 5.12 21.504 4.096 19.968 3.584 29.184q2.048 27.648-0.512 62.464t-6.656 66.56q-4.096 36.864-11.264 74.752-13.312-100.352-24.576-184.32-5.12-35.84-9.216-71.68t-8.192-66.56-6.656-53.76-2.56-33.28q-13.312-12.288-30.208-16.896t-34.304-2.56-33.792 11.264-29.696 25.6q0 21.504 2.048 56.832t4.096 75.264 5.632 79.872 6.656 70.656q2.048 20.48 6.144 60.928t9.728 90.112 11.776 102.912 13.824 100.352 16.384 81.92 17.92 48.128q20.48 12.288 56.32 25.6t73.216 26.624 71.168 25.088 50.176 22.016q10.24-13.312 16.896-61.44t13.312-115.712 15.36-146.432 23.04-153.6l38.912 334.848-29.696 25.6 43.008 54.272 15.36-2.048 15.36 2.048 43.008-54.272-29.696-25.6 38.912-334.848q14.336 74.752 23.04 153.6t15.36 146.432 13.312 115.712 16.896 61.44q16.384-10.24 50.176-22.016t71.168-25.088 73.216-26.624 56.32-25.6z"  horiz-adv-x="1024" />

    
    <glyph glyph-name="peishi" unicode="&#58893;" d="M720.896 653.312q47.104-28.672 86.528-68.096t67.072-88.064 43.008-103.424 15.36-114.176q0-91.136-34.304-165.888t-93.696-128.512-138.24-83.456-168.96-29.696q-91.136 0-170.496 29.696t-138.752 83.456-93.696 128.512-34.304 165.888q0 58.368 14.848 113.152t42.496 102.4 66.56 87.552 86.016 68.608q-2.048 12.288-1.536 27.648t2.56 35.84q0 18.432 17.92 44.544t48.64 50.176 71.68 40.448 88.064 16.384q46.08 0 87.04-16.384t71.68-40.448 48.128-50.176 17.408-44.544q2.048-18.432 1.536-33.792t-2.56-27.648zM407.552 801.792q-22.528-11.264-33.28-27.648t-5.632-27.648q6.144-11.264 26.112-10.24t41.472 13.312q22.528 11.264 33.792 27.648t5.12 27.648-26.112 10.24-41.472-13.312zM497.664-36.864q71.68 0 134.144 22.528t109.568 64 74.24 99.84 27.136 130.048q0 56.32-17.408 108.032t-48.128 94.208-73.728 74.752-94.208 49.664q-23.552 5.12-50.688 11.264t-55.808 7.168l-5.12 0-6.144 0q-21.504-1.024-41.984-4.096t-40.96-7.168q-55.296-14.336-102.912-46.08t-81.92-75.776-53.76-98.304-19.456-113.664q0-71.68 27.136-130.048t74.24-99.84 110.592-64 135.168-22.528z"  horiz-adv-x="1024" />

    
    <glyph glyph-name="xiezi" unicode="&#58894;" d="M1021.952 60.416q-1.024-10.24 0-27.648t-3.072-26.624q-24.576-11.264-51.712-18.432t-55.808-11.264-56.832-6.144-54.784-3.072q-64.512-4.096-129.024-4.096t-129.024 2.048q-19.456 1.024-31.744 3.072t-23.552 17.408q-9.216 11.264-16.896 22.016t-14.848 22.016q-17.408 27.648-31.744 57.344l-28.672 59.392q-11.264 20.48-26.112 48.64t-31.744 57.856-33.792 56.832-31.232 44.544q-6.144 7.168-13.312 7.68t-15.36-2.56l-16.384-4.096q-8.192-3.072-16.384-1.024-13.312-26.624-19.456-53.76t-9.728-54.784-6.656-56.32-10.24-57.344q-7.168-31.744-9.728-62.976t-2.56-62.976q-1.024-2.048-0.512-5.632t0.512-5.632q-6.144-2.048-13.312-2.048l-12.288 0q-6.144 0-18.432-1.536t-17.408 1.536q-1.024 8.192 0 14.848t0 14.848q-5.12 59.392-9.728 120.832t-12.8 122.368-21.504 119.808-35.84 114.176q-12.288 36.864-8.704 74.752t17.92 73.728 35.84 68.096 45.056 58.88q99.328-93.184 195.072-189.952t190.976-195.072q21.504-21.504 41.984-44.032t43.008-43.008 48.128-36.864 55.296-26.624q27.648-9.216 57.344-9.216 8.192-1.024 16.384-1.024t16.384 2.048q4.096 6.144 8.704 11.776t10.752 10.752q11.264 10.24 25.6 16.384t29.184 6.144 29.184-5.632 24.576-17.92q15.36-20.48 15.36-43.008 0-7.168 1.024-10.24t2.56-5.632 4.608-5.12 7.168-8.704q6.144-9.216 6.144-20.48 10.24-4.096 20.48-12.288 21.504-17.408 34.816-45.056 2.048-6.144 4.096-12.8t3.072-12.8q11.264 0 18.432-4.096l6.144-6.144q2.048-3.072 5.12-6.144z"  horiz-adv-x="1024" />

    
    <glyph glyph-name="baobao" unicode="&#58895;" d="M1024-8.192q0-12.288-11.264-32.768t-34.304-39.424-56.832-33.28-77.824-14.336l-662.528 0q-45.056 0-78.848 14.336t-56.832 33.28-34.304 39.424-11.264 32.768l90.112 482.304q0 25.6 17.92 43.008t42.496 17.408q7.168-2.048 16.384-5.12 8.192-2.048 19.456-5.12l24.576-7.168 0 79.872q0 61.44 23.552 116.224t64.512 95.232 95.744 64 117.248 23.552 117.248-23.552 95.744-64 64.512-95.232 23.552-116.224l0-79.872 24.576 7.168q11.264 3.072 19.456 5.12 9.216 3.072 16.384 5.12 25.6 0 43.008-17.408t17.408-43.008zM240.64 323.584q25.6 0 43.008 17.408t17.408 43.008q0 17.408-8.192 30.72t-21.504 21.504l0-52.224-60.416 0 0 52.224q-29.696-16.384-29.696-52.224 0-25.6 17.408-43.008t41.984-17.408zM271.36 502.784q50.176-11.264 112.64-19.968t128-8.704 128 8.704 113.664 19.968l0 84.992q0 51.2-18.944 96.256t-51.712 78.848-76.8 53.248-94.208 19.456-93.696-19.456-76.288-53.248-51.712-78.848-18.944-96.256l0-84.992zM783.36 323.584q25.6 0 43.008 17.408t17.408 43.008q0 17.408-8.192 30.72t-22.528 21.504l0-52.224-59.392 0 0 52.224q-14.336-8.192-22.528-21.504t-8.192-30.72q0-25.6 17.92-43.008t42.496-17.408z"  horiz-adv-x="1024" />

    
    <glyph glyph-name="nvzhuang" unicode="&#58896;" d="M662.528 444.416q10.24-5.12 30.208-16.384t46.08-31.744 57.856-52.736 65.024-80.896 67.072-115.2 64.512-154.624q-15.36-9.216-31.232-21.504t-31.232-22.016-31.744-15.36-32.768-2.56q-44.032 9.216-78.336 8.192t-62.976-7.68-53.248-16.896-47.616-19.968-46.08-16.384-49.664-6.656q-57.344 1.024-110.592 16.896t-101.376 32.256-89.6 25.088-75.264-4.608q-20.48-8.192-41.984-1.024t-38.912 18.432q-20.48 13.312-39.936 33.792 37.888 116.736 86.016 199.68t92.672 136.704 78.848 81.408 43.52 33.792q9.216 5.12 10.24 25.088t-1.024 40.448q-3.072 24.576-9.216 54.272l-150.528 302.08 180.224 29.696q27.648-52.224 53.76-79.36t50.176-36.864 45.568-5.12 39.936 17.92q43.008 30.72 80.896 103.424l181.248-29.696q-20.48-48.128-45.056-99.328-20.48-44.032-47.616-97.28t-57.856-105.472q-12.288-34.816-13.824-57.344t1.536-36.864q4.096-16.384 12.288-25.6z"  horiz-adv-x="1024" />

    
    <glyph glyph-name="daishouhuo" unicode="&#58900;" d="M351.04161 320.50999 222.978932 320.50999c-17.674545 0-32.017204 14.31196-32.017204 32.018228 0 17.672498 14.34266 32.015158 32.017204 32.015158l96.048543 0 0 96.046496c0 17.674545 14.343683 32.019251 32.013111 32.019251 17.674545 0 32.017204-14.344706 32.017204-32.019251l0-128.061654C383.058814 334.821951 368.716154 320.50999 351.04161 320.50999L351.04161 320.50999zM701.3623 229.585141c-61.983703 0-113.724111-43.314505-127.362736-101.169167L450.133466 128.415974c-13.576203 57.917084-65.379033 101.263311-127.392412 101.263311-72.326259 0-131.168412-58.814524-131.168412-131.134643 0-72.38868 58.842153-131.293255 131.168412-131.293255 60.410881 0 110.900809 41.364083 126.044718 97.102548l126.498042 0c15.111163-55.738465 65.599044-97.042173 126.078487-97.042173 72.257697 0 131.071198 58.81657 131.071198 131.136689C832.433498 170.775734 773.619998 229.585141 701.3623 229.585141L701.3623 229.585141zM322.770729 31.308309c-37.010939 0-67.138096 30.16195-67.138096 67.26601 0 36.983309 30.098505 67.110467 67.138096 67.110467 37.009915 0 67.10842-30.099529 67.10842-67.110467C389.87915 61.469236 359.780645 31.308309 322.770729 31.308309L322.770729 31.308309zM701.3623 31.371754c-36.981263 0-67.10842 30.097482-67.10842 67.10842s30.097482 67.104327 67.10842 67.104327c36.942377 0 67.040882-30.093389 67.040882-67.104327S738.338447 31.371754 701.3623 31.371754L701.3623 31.371754zM863.327112 800.749636 398.809543 800.749636c-43.99091 0-79.781044-35.794228-79.781044-79.784114l0-92.555999-194.754612-97.872075c-1.378393-0.708128-2.720971-1.50426-4.001127-2.403746-36.116569-25.390273-56.029084-64.99427-56.029084-111.575168l0-322.148048c0-17.704221 14.343683-32.010041 32.018228-32.010041 17.670451 0 32.013111 14.305821 32.013111 32.010041L128.275014 416.558533c0 25.038256 9.091052 44.536332 27.054169 57.916061l210.090902 105.555058c1.440815 0.709151 2.368954 1.988284 3.64911 2.882654 1.885953 1.314948 3.774977 2.495844 5.314029 4.161786 1.407046 1.538029 2.335185 3.331885 3.425006 5.061272 1.088798 1.729387 2.242064 3.326768 2.974751 5.28026 0.801249 2.179642 1.026376 4.417613 1.348718 6.693446 0.25378 1.567705 0.927115 2.945075 0.927115 4.542456L383.058814 720.965521c0 8.67559 7.074116 15.754822 15.750729 15.754822l464.517569 0c17.640776 0 31.984459-14.602579 31.984459-32.531927l0-607.788623c0-17.702174 14.312984-32.016181 32.017204-32.016181 17.705244 0 32.018228 14.314007 32.018228 32.016181L959.347003 704.188416C959.347003 757.434108 916.249439 800.749636 863.327112 800.749636L863.327112 800.749636zM863.327112 800.749636"  horiz-adv-x="1024" />

    
    <glyph glyph-name="shouhuodizhi" unicode="&#58902;" d="M511.997-128c-63.842-0.33-383.999 479.448-383.999 639.999 0 212.075 171.922 384.001 383.999 384.001 212.075 0 384.003-171.926 384.003-384.001 0.002-158.399-321.16-640.329-384.003-639.999zM511.997 832.002c-176.73 0-320.001-143.272-320.001-320.001 0-133.792 266.798-544.271 320.001-544.001 52.37-0.27 319.999 411.997 319.999 544.001 0.002 176.728-143.268 320.001-319.999 320.001zM511.997 351.999c-88.365 0-160 71.635-160 160 0 88.365 71.635 160 160 160 88.365 0 160-71.635 160-160 0-88.365-71.635-160-160-160zM511.997 607.997c-53.019 0-96.002-42.975-96.002-95.998 0-53.021 42.981-95.996 96.002-95.996s96 42.975 96 95.996c0 53.023-42.979 95.998-96 95.998z"  horiz-adv-x="1024" />

    
    <glyph glyph-name="gouwuche" unicode="&#58943;" d="M246.4-16a2.1 2.1 0 1 0 134.4 0 2.1 2.1 0 1 0-134.4 0ZM716.8-16a2.1 2.1 0 1 0 134.4 0 2.1 2.1 0 1 0-134.4 0ZM905.6 131.2l-537.6 0c-28.8 0-57.6 25.6-64 54.4l-96 566.4c-9.6 54.4-60.8 96-115.2 96l-22.4 0c-12.8 0-25.6-12.8-25.6-25.6 0-12.8 12.8-25.6 25.6-25.6l22.4 0c28.8 0 57.6-25.6 64-54.4l96-566.4c9.6-54.4 60.8-96 115.2-96l537.6 0c12.8 0 25.6 12.8 25.6 25.6C931.2 118.4 921.6 131.2 905.6 131.2zM880 716.8l-572.8 0c-12.8 0-25.6-12.8-25.6-25.6 0-12.8 12.8-25.6 25.6-25.6l572.8 0c25.6 0 38.4-16 32-41.6l-70.4-281.6c-6.4-32-41.6-57.6-73.6-60.8l-396.8-28.8c-12.8 0-25.6-12.8-22.4-28.8 0-12.8 12.8-25.6 28.8-22.4l396.8 28.8c54.4 3.2 105.6 48 118.4 99.2l70.4 281.6C976 665.6 937.6 716.8 880 716.8z"  horiz-adv-x="1024" />

    
    <glyph glyph-name="shouye" unicode="&#58959;" d="M969.6 393.6l-118.4 112-323.2 300.8c-9.6 9.6-22.4 9.6-32 0l-313.6-297.6c-3.2-3.2-6.4-6.4-9.6-9.6l-118.4-112c-9.6-9.6-9.6-22.4 0-32s22.4-9.6 32 0l83.2 80 0-393.6c0-48 41.6-89.6 92.8-89.6l83.2 0c38.4 0 70.4 28.8 70.4 67.2l0 217.6 99.2 0 99.2 0 0-217.6c0-35.2 32-67.2 70.4-67.2l83.2 0c51.2 0 92.8 38.4 92.8 89.6l0 396.8 80-73.6c9.6-9.6 22.4-9.6 32 0C979.2 371.2 979.2 384 969.6 393.6zM809.6 38.4c0-25.6-19.2-44.8-44.8-44.8l-83.2 0c-12.8 0-22.4 9.6-22.4 22.4L659.2 256c0 12.8-9.6 22.4-22.4 22.4l-121.6 0-121.6 0c-12.8 0-22.4-9.6-22.4-22.4l0-240c0-12.8-9.6-22.4-22.4-22.4l-83.2 0c-25.6 0-44.8 19.2-44.8 44.8l0 438.4 294.4 281.6 294.4-281.6L809.6 38.4z"  horiz-adv-x="1024" />

    
    <glyph glyph-name="sousuo" unicode="&#58961;" d="M966.4-28.8l-230.4 227.2c60.8 67.2 96 156.8 96 256 0 217.6-176 390.4-390.4 390.4-217.6 0-390.4-176-390.4-390.4 0-217.6 176-390.4 390.4-390.4 99.2 0 188.8 35.2 256 96l230.4-227.2c9.6-9.6 28.8-9.6 38.4 0C979.2-54.4 979.2-38.4 966.4-28.8zM102.4 454.4c0 185.6 150.4 339.2 339.2 339.2s339.2-150.4 339.2-339.2c0-89.6-35.2-172.8-92.8-233.6-3.2 0-3.2-3.2-6.4-3.2-3.2-3.2-3.2-3.2-3.2-6.4-60.8-57.6-144-92.8-233.6-92.8C256 115.2 102.4 268.8 102.4 454.4z"  horiz-adv-x="1024" />

    
    <glyph glyph-name="suo" unicode="&#58962;" d="M860.8 448l-9.6 0c3.2 19.2 6.4 41.6 6.4 64 0 188.8-153.6 336-345.6 336s-345.6-147.2-345.6-336c0-22.4 3.2-41.6 6.4-64l-12.8 0c-54.4 0-96-41.6-96-96l0-320c0-54.4 41.6-96 96-96l700.8 0c54.4 0 96 41.6 96 96l0 320C956.8 406.4 915.2 448 860.8 448zM220.8 451.2c-3.2 19.2-6.4 38.4-6.4 60.8 0 163.2 131.2 288 294.4 288s294.4-128 294.4-288c0-22.4-3.2-44.8-6.4-64l-32 0L224 448 220.8 451.2zM908.8 32c0-25.6-22.4-48-48-48L160-16c-25.6 0-48 22.4-48 48l0 320c0 25.6 22.4 48 48 48l608 0 89.6 0c25.6 0 48-22.4 48-48L905.6 32zM512 304c-12.8 0-25.6-9.6-25.6-25.6l0-195.2c0-12.8 9.6-25.6 25.6-25.6s25.6 9.6 25.6 25.6l0 195.2C537.6 291.2 524.8 304 512 304z"  horiz-adv-x="1024" />

    
    <glyph glyph-name="xiangshangjiantou" unicode="&#58973;" d="M966.4 227.2l-435.2 432c-9.6 9.6-25.6 9.6-35.2 0l-441.6-432c-9.6-9.6-9.6-25.6 0-35.2 9.6-9.6 25.6-9.6 35.2 0l425.6 416 416-416c9.6-9.6 25.6-9.6 35.2 0S976 217.6 966.4 227.2z"  horiz-adv-x="1024" />

    
    <glyph glyph-name="xiangxiajiantou" unicode="&#58974;" d="M966.4 572.8c-9.6 9.6-25.6 9.6-35.2 0l-416-416-425.6 416c-9.6 9.6-25.6 9.6-35.2 0-9.6-9.6-9.6-25.6 0-35.2l441.6-432c9.6-9.6 25.6-9.6 35.2 0l435.2 432C976 550.4 976 563.2 966.4 572.8z"  horiz-adv-x="1024" />

    
    <glyph glyph-name="xiangyoujiantou" unicode="&#58975;" d="M761.6 406.4l-432 435.2c-9.6 9.6-25.6 9.6-35.2 0-9.6-9.6-9.6-25.6 0-35.2l416-416-416-425.6c-9.6-9.6-9.6-25.6 0-35.2s25.6-9.6 35.2 0l432 441.6C771.2 380.8 771.2 396.8 761.6 406.4z"  horiz-adv-x="1024" />

    
    <glyph glyph-name="xiangzuojiantou" unicode="&#58976;" d="M729.6-35.2l-416 425.6 416 416c9.6 9.6 9.6 25.6 0 35.2-9.6 9.6-25.6 9.6-35.2 0l-432-435.2c-9.6-9.6-9.6-25.6 0-35.2l432-441.6c9.6-9.6 25.6-9.6 35.2 0C739.2-60.8 739.2-44.8 729.6-35.2z"  horiz-adv-x="1024" />

    
    <glyph glyph-name="zhengque" unicode="&#58980;" d="M969.6 688c-9.6 9.6-25.6 9.6-35.2 0l-508.8-537.6c-19.2-19.2-48-19.2-70.4-3.2l-265.6 252.8c-9.6 9.6-25.6 9.6-35.2 0-9.6-9.6-9.6-25.6 0-35.2l265.6-252.8c38.4-38.4 102.4-35.2 137.6 3.2l508.8 537.6C979.2 662.4 979.2 678.4 969.6 688z"  horiz-adv-x="1024" />

    
    <glyph glyph-name="mima" unicode="&#58919;" d="M812.52631602 526.63157901l-80.17543829 0c0 128.77192969-98.42105303 227.19298271-223.85964902 227.19298271-125.61403536 0-223.85964903-98.42105303-223.85964902-227.19298271L204.28070205 526.63157901C204.28070205 681.19298232 340.59649151 834 508.31578935 834 676.03508808 834 812.52631602 681.19298232 812.52631602 526.63157901L812.52631602 526.63157901zM914.28070185 394.87719258c0 44.21052598-35.9649123 80.17543828-80.17543828 80.17543828L191.64912295 475.05263174c-44.21052598 0-80.17543828-35.9649123-80.17543828-80.17543828l0-380.7017543c0-44.21052598 35.9649123-80.17543828 80.17543828-80.17543828l642.28070215 0c44.21052598 0 80.17543828 35.9649123 80.17543828 80.17543828L914.10526338 394.87719258 914.28070185 394.87719258zM576.38596484 97.15789482000002c0-33.15789492-26.84210537-60.17543877-60.17543877-60.17543876l-8.5964915 0c-33.15789492 0-60.17543877 26.84210537-60.17543877 60.17543876l0 163.15789483c0 33.15789492 26.84210537 60.17543877 60.17543877 60.17543877l8.5964915 0c33.15789492 0 60.17543877-26.84210537 60.17543877-60.17543877L576.38596484 97.15789482000002 576.38596484 97.15789482000002zM576.38596484 97.15789482000002"  horiz-adv-x="1024" />

    
    <glyph glyph-name="icon-refresh" unicode="&#58977;" d="M55.935 631.511c0 0 85.897 132.548 221.814 203.673 135.916 71.122 303.369 50.647 413.188-18.32 109.819-68.97 146.792-127.16 146.792-127.16l94.595 53.88c0 0 19.576 9.697 19.576-12.932v-338.38c0 0 0-30.174-22.838-19.395-19.211 9.063-226.959 127.198-292.425 164.467-35.95 16.035-4.365 29.062-4.365 29.062l91.284 52.174c0 0-52.069 65.21-128.279 99.745-81.576 42.502-157.948 47.542-251.498 12.224-61.003-23.025-132.823-81.988-184.554-169.083l-103.292 70.045zM904.057 184.302c0 0-85.897-132.55-221.816-203.671-135.917-71.123-303.366-50.652-413.187 18.315-109.826 68.972-146.791 127.165-146.791 127.165l-94.6-53.88c0 0-19.572-9.703-19.572 12.932l0 338.377c0 0 0 30.171 22.832 19.397 19.212-9.068 226.965-127.198 292.431-164.471 35.95-16.035 4.366-29.058 4.366-29.058l-91.285-52.176c0 0 52.071-65.207 128.28-99.745 81.573-42.499 157.942-47.541 251.497-12.222 60.999 23.026 132.82 81.983 184.547 169.083l103.3-70.047zM904.057 184.302z"  horiz-adv-x="1024" />

    
    <glyph glyph-name="icon04" unicode="&#58898;" d="M49.4592 746.86464l266.24 0 0-81.92-266.24 0 0 81.92ZM49.4592 9.58464l860.16 0 0-81.92-860.16 0 0 81.92ZM49.4592 378.22464l266.24 0 0-81.92-266.24 0 0 81.92ZM894.19776 84.02944c-8.51968 1.76128-16.36352 6.77888-21.52448 14.6432l-99.69664 151.79776c-10.32192 15.68768-5.9392 36.80256 9.74848 47.104 15.70816 10.32192 36.78208 5.95968 47.104-9.74848l99.69664-151.79776c10.32192-15.68768 5.9392-36.80256-9.74848-47.104C911.91296 83.74272 902.71744 82.24768 894.19776 84.02944zM592.62976 211.94752c-171.68384 35.55328-282.03008 203.5712-246.4768 375.25504s203.5712 282.03008 375.25504 246.4768 282.03008-203.5712 246.4768-375.25504S764.3136 176.39424 592.62976 211.94752zM901.26336 472.22784c27.93472 134.90176-58.75712 266.89536-193.65888 294.85056s-266.89536-58.75712-294.85056-193.65888 58.75712-266.89536 193.65888-294.85056C741.31456 250.63424 873.32864 337.32608 901.26336 472.22784z"  horiz-adv-x="1024" />

    
    <glyph glyph-name="star-light" unicode="&#59074;" d="M1022.578628 504.712269l-341.998141 69.009723L511.402389 896 342.212012 573.721992 0.220011 504.712269l237.97395-266.87621L194.835454-126.35759399999995 511.401366 29.591200999999955 827.957045-126.35759399999995l-43.360554 364.193653L1022.578628 504.712269 1022.578628 504.712269z"  horiz-adv-x="1024" />

    
    <glyph glyph-name="star" unicode="&#59076;" d="M525.215744 46.91967999999997L200.614912-128l61.99296 370.486272L0 504.866816l362.914816 54.052864L525.215744 896l162.300928-337.08032 362.914816-54.052864L787.823616 242.48627199999999 849.816576-128 525.215744 46.91967999999997zM218.441728-21.458943999999974L484.734976 122.04031999999995 525.215744 143.85459200000003l40.480768-21.814272 266.293248-143.499264 10.9312-65.327104-29.889536-21.39136-58.308608 31.42144L703.660032 228.40319999999997l-7.257088 43.369472 31.107072 31.079424 217.851904 217.663488 62.575616-9.320448 12.101632-36.694016-44.755968-44.717056-300.3392 44.73344-44.705792 6.659072-19.608576 40.72448L477.860864 797.648896l29.530112 61.331456 35.648512 0 29.530112-61.331456L439.799808 521.9010559999999l-19.608576-40.72448-44.705792-6.659072-300.3392-44.73344L30.391296 474.50112l12.101632 36.694016 62.57664 9.320448 217.851904-217.663488 31.107072-31.079424-7.257088-43.369472-51.06176-305.159168-58.308608-31.42144-29.889536 21.39136L218.441728-21.458943999999974z"  horiz-adv-x="1051" />

    
    <glyph glyph-name="shoujihao" unicode="&#58946;" d="M732.09523222 852.04785319L290.28034393 852.04785319c-54.23193202 0-98.19571268-43.96005603-98.19571269-98.18453637l0-736.37594787c0-54.22199725 43.96253913-98.1932296 98.19571269-98.19322959l441.81488829 0c54.22075449 0 98.18453637 43.97123235 98.18453638 98.19322959L830.27976738 753.8645583699999C830.27976738 808.08779715 786.31722826 852.04785319 732.09523222 852.04785319zM584.82029121-7.059075529999973L437.54410742-7.059075529999973l0 49.09164741 147.27494103 0L584.81904845-7.059075529999973zM756.6416767 115.66942101999996c0-13.53935409-10.9785264-24.54520293-24.54644448-24.54520294L290.28034393 91.12421807999999c-13.56667653 0-24.54644448 11.00460609-24.54644447 24.54520294L265.73389946 753.8645583699999c0 13.56916084 10.97976795 24.54644448 24.54644447 24.54644448l441.81488829 0c13.56791808 0 24.54644448-10.97728364 24.54644448-24.54644448L756.6416767 115.66942101999996z"  horiz-adv-x="1024" />

    
    <glyph glyph-name="mima-hide" unicode="&#58999;" d="M889.104707 508.311237l70.419839 75.851549-19.678178 18.260899-70.236668-75.641771C692.654476 344.09310500000004 514.610454 349.682403 512.432859 349.472626 282.437627 350.60030900000004 86.775342 583.3492570000001 84.820827 585.711048l-20.688181-17.158798c4.218068-5.081739 57.688887-68.527746 140.991128-129.708154l-77.419254-94.330412 20.780279-17.054421 78.625732 95.801926c45.570895-31.146371 98.579179-60.231803 156.648736-79.054497l-34.639938-117.182886 25.764803-7.608282 34.744315 117.550253c32.855292-8.635681 66.927295-14.161534 102.120842-14.33345 0.603751-0.052189 2.295276-0.105401 4.972245-0.105401 13.709233 0 53.500495 1.684362 108.149139 18.088984l30.854728-175.038572 26.447349 4.670369L650.64264 349.09809499999994c48.557926 17.454534 106.129132 46.603411 166.388565 94.158497l55.990199-100.527554 23.481807 13.065574-58.413388 104.879676C854.996888 475.131557 872.018563 490.670461 889.104707 508.311237z"  horiz-adv-x="1024" />

    
    <glyph glyph-name="quxiaoshoukuan" unicode="&#58929;" d="M295.182352 213.984475M500.285995 304.779979c-0.060446 0.671962-0.122908 1.406386-0.183354 2.078348C500.163087 306.186365 500.225548 305.451941 500.285995 304.779979zM692.030987 521.890287c1.588732 0 3.178472-0.061454 4.766197-0.061454C695.209459 521.828834 693.619719 521.890287 692.030987 521.890287zM703.398936 521.522572c0.979231-0.060446 1.834548-0.1219 2.811764-0.183354C705.233484 521.400672 704.378168 521.463133 703.398936 521.522572zM500.839079 299.279358c0 0.610508-0.123915 1.282471-0.185369 1.896002C500.714157 300.561829 500.839079 299.889866 500.839079 299.279358zM751.07602 512.354871c0.732409-0.183354 1.344932-0.428162 2.078348-0.67297C752.420952 511.926709 751.808429 512.171517 751.07602 512.354871zM708.228602 521.155864c0.915763-0.061454 1.771079-0.122908 2.62841-0.2438C709.999681 521.032956 709.144365 521.095418 708.228602 521.155864zM499.85884 310.403507c-0.061454 0.670955-0.122908 1.345939-0.122908 2.016894C499.735933 311.749447 499.797387 311.074462 499.85884 310.403507zM502.549712 287.728054c0 0.182347 0 0.427154-0.122908 0.671962C502.549712 288.155209 502.549712 287.910401 502.549712 287.728054zM499.553586 316.271843c0 0.609501-0.061454 1.160571-0.061454 1.772086C499.49314 317.433421 499.553586 316.882352 499.553586 316.271843zM712.933346 520.728709c0.855316-0.122908 1.71164-0.244808 2.570986-0.306262C714.644986 520.483902 713.787655 520.605802 712.933346 520.728709zM741.538589 515.228089c0.978224-0.244808 1.956448-0.55107 2.936687-0.79487C743.496044 514.677019 742.516813 514.983281 741.538589 515.228089zM735.79316 516.756375c0.980239-0.244808 1.83354-0.489616 2.751318-0.67297C737.627708 516.265752 736.773399 516.510559 735.79316 516.756375zM746.675524 513.760249c0.733416-0.183354 1.465825-0.427154 2.138794-0.670955C748.141349 513.332087 747.40894 513.575888 746.675524 513.760249zM731.33121 517.732584c0.797892-0.182347 1.654216-0.365701 2.508525-0.549055C732.984418 517.366883 732.129102 517.550237 731.33121 517.732584zM726.80982 518.650361c0.79487-0.183354 1.650186-0.304247 2.504495-0.489616C728.460006 518.345107 727.60469 518.466 726.80982 518.650361zM717.579658 520.118201c0.857331-0.123915 1.712648-0.245815 2.566956-0.367715C719.292305 519.872386 718.436989 519.994286 717.579658 520.118201zM722.224962 519.446239c0.855316-0.123915 1.710633-0.306262 2.50651-0.428162C723.936602 519.13897 723.080278 519.322324 722.224962 519.446239zM501.57048 293.839184c-0.062461 0.429169-0.123915 0.917778-0.182347 1.406386C501.446565 294.756961 501.509027 294.267345 501.57048 293.839184zM528.342183 219.085142c-0.122908 0.244808-0.244808 0.428162-0.366708 0.671962C528.097375 219.513304 528.219276 219.330958 528.342183 219.085142zM531.27484 214.439838c-0.120893 0.244808-0.2438 0.428162-0.427154 0.67297C531.03104 214.868 531.153947 214.684646 531.27484 214.439838zM525.348072 224.280509c0 0-0.062461 0-0.062461 0.062461C525.285611 224.280509 525.348072 224.280509 525.348072 224.280509zM534.211527 209.97688c-0.123915 0.185369-0.123915 0.307269-0.246823 0.429169C534.086604 210.284149 534.086604 210.162249 534.211527 209.97688zM547.719279 192.374894c-0.063469 0.122908-0.183354 0.184361-0.183354 0.244808C547.535924 192.558248 547.65581 192.497801 547.719279 192.374894zM520.151698 234.123195c-0.1219 0.182347-0.1219 0.364693-0.244808 0.485586C520.029798 234.488896 520.029798 234.305542 520.151698 234.123195zM571.129155 169.331725c0 0 0 0.062461-0.062461 0.062461C571.129155 169.393179 571.129155 169.331725 571.129155 169.331725zM551.324905 188.279651c-0.061454 0.120893-0.122908 0.183354-0.185369 0.2438C551.201998 188.463005 551.263451 188.400544 551.324905 188.279651zM515.690755 243.779505c-0.185369 0.428162-0.304247 0.856324-0.553084 1.283478C515.386509 244.635828 515.505386 244.207666 515.690755 243.779505zM506.398132 270.612661c-0.180332 0.610508-0.303239 1.161578-0.427154 1.71164C506.094892 271.774239 506.2178 271.22317 506.398132 270.612661zM509.453696 260.343828c-0.060446 0.122908-0.060446 0.183354-0.060446 0.2438C509.394257 260.526175 509.394257 260.466736 509.453696 260.343828zM507.866979 265.477741c-0.184361 0.427154-0.309284 0.91677-0.429169 1.406386C507.557695 266.394511 507.682617 265.904895 507.866979 265.477741zM505.055214 275.929928c-0.183354 0.611516-0.306262 1.160571-0.429169 1.772086C504.748953 277.091506 504.87186 276.542451 505.055214 275.929928zM517.891004 238.889392c-0.185369 0.366708-0.305254 0.734424-0.552077 1.101132C517.586757 239.623816 517.706642 239.2561 517.891004 238.889392zM511.47462 254.597392c-0.124923 0.184361-0.124923 0.306262-0.24783 0.488608C511.349698 254.903654 511.349698 254.781754 511.47462 254.597392zM503.770729 281.430549c-0.061454 0.552077-0.184361 1.039678-0.304247 1.58974C503.586367 282.470226 503.709275 281.982626 503.770729 281.430549zM513.550953 248.913417c-0.122908 0.367715-0.245815 0.795877-0.428162 1.162585C513.305138 249.709295 513.428046 249.281133 513.550953 248.913417zM698.384909 521.76738c1.040685-0.061454 2.080363-0.061454 3.118026-0.1219C700.466279 521.705926 699.426602 521.705926 698.384909 521.76738zM790.805413 493.833092c0.183354-0.120893 0.364693-0.2438 0.55107-0.305254C791.170106 493.590299 790.987759 493.712199 790.805413 493.833092zM780.168864 499.945228c0.184361-0.120893 0.367715-0.182347 0.55107-0.303239C780.53658 499.762882 780.353226 499.824336 780.168864 499.945228zM794.106793 491.756758c0.364693-0.244808 0.669947-0.429169 0.975202-0.671962C794.77674 491.327589 794.471486 491.511951 794.106793 491.756758zM797.653988 489.373156c0.363686-0.246823 0.732409-0.489616 1.097102-0.734424C798.385389 488.88354 798.017673 489.127341 797.653988 489.373156zM772.101287 503.981032c0.548047-0.244808 1.037663-0.488608 1.588732-0.734424C773.139957 503.491416 772.649334 503.735217 772.101287 503.981032zM768.067498 505.814572c0.487601-0.244808 1.098109-0.489616 1.587725-0.734424C769.165608 505.324956 768.556107 505.569764 768.067498 505.814572zM776.136083 502.025591c0.486593-0.244808 0.858339-0.489616 1.344932-0.67297C776.994422 501.535976 776.623684 501.779776 776.136083 502.025591zM815.19452 476.047751c0.2438-0.183354 0.427154-0.428162 0.670955-0.611516C815.621675 475.619589 815.438321 475.864397 815.19452 476.047751zM804.863226 484.360136c0.366708-0.305254 0.735431-0.610508 1.103146-0.856324C805.598657 483.74862 805.229934 484.054882 804.863226 484.360136zM801.255585 486.927092c0.429169-0.305254 0.796885-0.550062 1.163593-0.79487C802.05247 486.37703 801.684754 486.621838 801.255585 486.927092zM808.345945 481.670272c0.309284-0.305254 0.674985-0.550062 1.040685-0.856324C809.02093 481.12021 808.655229 481.365018 808.345945 481.670272zM811.829672 478.919962c0.246823-0.305254 0.612523-0.549055 0.856324-0.793862C812.442195 478.370907 812.076495 478.614707 811.829672 478.919962zM755.417078 510.888038c0.669947-0.244808 1.282471-0.489616 1.891972-0.734424C756.699549 510.39943 756.087025 510.644238 755.417078 510.888038zM759.632206 509.298299c0.673977-0.2438 1.283478-0.488608 1.894994-0.734424C760.916691 508.80969 760.306183 509.054498 759.632206 509.298299zM763.908787 507.587666c0.552077-0.244808 1.162585-0.489616 1.71567-0.733416C765.07238 507.09805 764.460864 507.342858 763.908787 507.587666zM809.386631 480.813948c0.793862-0.609501 1.587725-1.282471 2.443041-1.893987C810.974356 479.53047 810.180493 480.20344 809.386631 480.813948zM513.122792 250.076003c-0.55107 1.465825-1.162585 2.994111-1.648171 4.521389C511.960206 253.070113 512.571722 251.541827 513.122792 250.076003zM517.338927 239.989516c-0.488608 1.283478-1.099117 2.504495-1.649179 3.789988C516.240817 242.495019 516.850318 241.274002 517.338927 239.989516zM753.154368 511.681901c0.733416-0.244808 1.46381-0.55107 2.26271-0.793862C754.618178 511.130831 753.886777 511.437093 753.154368 511.681901zM515.137671 245.06399c-0.486593 1.282471-1.033633 2.565949-1.586718 3.849427C514.104038 247.628932 514.651078 246.346461 515.137671 245.06399zM805.966373 483.503812c0.732409-0.610508 1.586718-1.221017 2.379573-1.83354C807.55309 482.282795 806.697774 482.893304 805.966373 483.503812zM509.394257 260.587629c-0.548047 1.58974-1.036655 3.240934-1.527279 4.890112C508.356594 263.828562 508.84621 262.177368 509.394257 260.587629zM744.475275 514.433219c0.733416-0.246823 1.464817-0.429169 2.200248-0.673977C745.9411 514.004049 745.208692 514.187403 744.475275 514.433219zM812.684988 478.126099c0.857331-0.734424 1.71567-1.406386 2.508525-2.078348C814.401665 476.720721 813.542319 477.391676 812.684988 478.126099zM757.30905 510.153615c0.856324-0.244808 1.591755-0.55107 2.324163-0.855316C758.900805 509.603553 758.164366 509.909814 757.30905 510.153615zM511.22679 255.087008c-0.608494 1.774101-1.221017 3.483727-1.773094 5.25682C510.005773 258.570734 510.619304 256.861109 511.22679 255.087008zM530.848693 215.112808c-0.795877 1.344932-1.651194 2.689864-2.505503 3.972335C529.1975 217.802672 530.052816 216.45774 530.848693 215.112808zM818.555339 473.113079 818.555339 473.113079c-0.856324 0.795877-1.774101 1.58974-2.689864 2.323156C816.781238 474.701812 817.699016 473.907949 818.555339 473.113079zM533.963697 210.406049c-0.91677 1.343925-1.829511 2.689864-2.688857 4.033789C532.134186 213.095913 533.046927 211.749974 533.963697 210.406049zM547.535924 192.619701c-4.76922 5.500621-9.171731 11.308511-13.325405 17.357179C538.365201 203.928212 542.766705 198.120322 547.535924 192.619701zM575.407751 165.908445c-1.468847 1.100124-2.810757 2.261702-4.278596 3.422273C572.596995 168.170147 573.938904 167.008569 575.407751 165.908445zM551.139536 188.524459c-1.160571 1.282471-2.321141 2.567964-3.421265 3.850435C548.819403 191.091415 549.978966 189.80693 551.139536 188.524459zM507.437809 266.885134c-0.363686 1.222024-0.735431 2.505503-1.039678 3.727527C506.702378 269.390637 507.074124 268.107159 507.437809 266.885134zM525.285611 224.341963c-1.773094 3.17948-3.482719 6.479852-5.133913 9.781232C521.802892 230.821815 523.512517 227.52245 525.285611 224.341963zM748.814318 513.089294c0.79487-0.244808 1.528286-0.488608 2.261702-0.734424C750.342604 512.599678 749.609188 512.844486 748.814318 513.089294zM551.324905 188.279651c6.112137-6.723653 12.714897-13.021158 19.742796-18.886472C564.039802 175.2595 557.437042 181.557006 551.324905 188.279651zM519.906891 234.609788c-0.733416 1.406386-1.345939 2.874225-2.015887 4.279604C518.560951 237.483006 519.174482 236.016174 519.906891 234.609788zM662.69132 519.567131C570.272831 505.019702 499.431686 422.870046 499.431686 323.666451 499.431686 422.870046 570.272831 505.019702 662.69132 519.567131zM527.975475 219.757105c-0.856324 1.46784-1.710633 2.996126-2.627403 4.522397C526.264843 222.75323 527.119151 221.225952 527.975475 219.757105zM773.690019 503.246608c0.855316-0.428162 1.650186-0.855316 2.446064-1.221017C775.340206 502.391292 774.545336 502.818446 773.690019 503.246608zM706.210701 521.339218c0.671962-0.061454 1.345939-0.1219 2.017902-0.183354C707.55664 521.218325 706.882663 521.277764 706.210701 521.339218zM777.481015 501.352622c0.856324-0.489616 1.773094-0.91677 2.687849-1.406386C779.254109 500.434844 778.337339 500.863006 777.481015 501.352622zM729.315323 518.159738c0.612523-0.120893 1.345939-0.241786 2.015887-0.427154C730.661262 517.917953 729.927846 518.038845 729.315323 518.159738zM701.502935 521.646487c0.673977-0.062461 1.282471-0.062461 1.896002-0.123915C702.786413 521.584026 702.176912 521.584026 701.502935 521.646487zM780.719934 499.641989c3.421265-1.834548 6.785106-3.789988 10.085479-5.808897C787.50504 495.852001 784.141199 497.807441 780.719934 499.641989zM696.797184 521.828834c0.489616 0 1.040685-0.061454 1.587725-0.061454C697.837869 521.76738 697.287807 521.828834 696.797184 521.828834zM499.49314 318.04393c0 1.894994-0.061454 3.728534-0.061454 5.622521C499.431686 321.772464 499.49314 319.938924 499.49314 318.04393zM720.146614 519.750486c0.733416-0.059439 1.406386-0.183354 2.078348-0.304247C721.553 519.567131 720.88003 519.691047 720.146614 519.750486zM769.656231 505.081156c0.856324-0.366708 1.709625-0.734424 2.446064-1.100124C771.365856 504.346732 770.511547 504.714448 769.656231 505.081156zM715.504332 520.422448c0.732409-0.1219 1.403364-0.183354 2.076333-0.304247C716.906688 520.239094 716.235733 520.300548 715.504332 520.422448zM499.735933 312.420401c-0.061454 1.282471-0.119885 2.567964-0.182347 3.851442C499.616047 314.988365 499.674479 313.702872 499.735933 312.420401zM710.857012 520.912064c0.731401-0.061454 1.406386-0.123915 2.076333-0.183354C712.263398 520.788148 711.588414 520.85061 710.857012 520.912064zM724.73248 519.018077c0.670955-0.123915 1.404371-0.244808 2.078348-0.367715C726.135843 518.773269 725.403434 518.894162 724.73248 519.018077zM802.419178 486.132223c0.79487-0.610508 1.587725-1.221017 2.444049-1.772086C804.006903 484.911206 803.214047 485.521714 802.419178 486.132223zM765.625465 506.85425c0.855316-0.306262 1.587725-0.67297 2.443041-1.039678C767.21319 506.18128 766.479773 506.547988 765.625465 506.85425zM502.426804 288.400017c-0.244808 1.773094-0.609501 3.604619-0.856324 5.43816C501.816296 292.004636 502.181996 290.17311 502.426804 288.400017zM503.466482 283.020288c-0.307269 1.58974-0.612523 3.118026-0.91677 4.707766C502.853959 286.138314 503.159213 284.611036 503.466482 283.020288zM738.545485 516.083405c1.039678-0.306262 2.015887-0.55107 2.994111-0.855316C740.561372 515.531328 739.585163 515.776136 738.545485 516.083405zM798.750082 488.638733c0.856324-0.55107 1.710633-1.161578 2.504495-1.71164C800.461722 487.478162 799.606406 488.087663 798.750082 488.638733zM504.626045 277.702014c-0.2438 1.224039-0.552077 2.507517-0.856324 3.728534C504.073968 280.209532 504.382245 278.926054 504.626045 277.702014zM505.970977 272.324301c-0.365701 1.222024-0.611516 2.382595-0.915763 3.605627C505.359461 274.706896 505.605276 273.546326 505.970977 272.324301zM791.356482 493.528845c0.91677-0.611516 1.896002-1.160571 2.75031-1.772086C793.251476 492.367267 792.273252 492.917329 791.356482 493.528845zM500.65371 301.175359c-0.122908 1.221017-0.242793 2.382595-0.367715 3.604619C500.410917 303.557954 500.530803 302.396376 500.65371 301.175359zM733.839734 517.183529c0.669947-0.183354 1.344932-0.306262 1.953426-0.427154C735.184666 516.877267 734.509682 517.000175 733.839734 517.183529zM500.102641 306.858327c-0.119885 1.159563-0.182347 2.322149-0.2438 3.54518C499.920294 309.180475 499.982755 308.018897 500.102641 306.858327zM795.081994 491.084796c0.859346-0.55107 1.71567-1.101132 2.571994-1.710633C796.797664 489.983665 795.940333 490.533727 795.081994 491.084796zM761.5272 508.564882c0.79487-0.304247 1.526271-0.610508 2.381587-0.977217C763.053471 507.954374 762.32207 508.260636 761.5272 508.564882zM501.388134 295.244562c-0.184361 1.283478-0.36973 2.62841-0.550062 4.034796C501.018403 297.87398 501.20478 296.529048 501.388134 295.244562zM504.216017 879.546495c-278.266936 0-503.773247-225.564743-503.773247-503.77224 0-278.207497 225.506311-503.774255 503.773247-503.774255 278.269958 0 503.773247 225.56575 503.773247 503.774255C1007.989264 653.981752 782.485976 879.546495 504.216017 879.546495zM704.080973 478.040467c32.713582 0 51.961725-21.154219 51.961725-51.103387 0-30.009614-19.248143-53.193824-51.961725-53.193824L575.613269 373.743256l0-65.185379 124.957784 0c32.719627 0 55.471645-15.312076 55.471645-54.301 0-29.949168-15.559906-49.99621-48.275503-49.99621L575.613269 204.260667l0-78.161202c0-37.450564-30.501245-65.246833-71.397252-65.246833-40.893993 0-71.397252 27.796269-71.397252 65.246833l0 78.161202-49.947853 0L230.746509 52.121152 199.257973 83.607673l-31.482491-31.486521-44.523798 44.521783 135.231654 135.244751c-3.982409 8.079666-6.089973 17.409566-6.089973 27.290534 0 30.008607 19.186689 49.380665 51.962733 49.380665l30.791387 0 65.179334 65.185379-95.970721 0c-32.713582 0-51.962733 23.18421-51.962733 53.193824 0 29.949168 19.186689 51.103387 51.962733 51.103387l124.283807 0L298.637871 597.158123c-23.308125 21.340595-23.308125 55.961261 0 77.299841 23.242641 21.340595 61.063943 21.340595 84.373075 0l120.161364-110.138346 120.714448 110.56953c22.108264 20.243493 57.215523 21.269067 80.661668 3.106944l69.204056 69.211108 31.487528-31.487528 31.484506 31.487528 44.520775-44.521783L656.647689 478.063638 704.080973 478.040467z"  horiz-adv-x="1024" />

    
    <glyph glyph-name="dingdanhao" unicode="&#58912;" d="M690.910763 380.356007c11.360745 0 18.934235-7.573489 18.934235-22.720468 0-11.360745-7.573489-18.934235-18.934235-22.720468L690.910763 380.356007 690.910763 380.356007zM690.910763-9.678174l117.388571 0c11.360745 0 22.720468 11.360745 22.720468 22.720468l0 3.787256L831.019801 524.251278l0 0c0 7.573489-3.787256 15.146978-7.573489 18.933211L690.910763 690.868039l0-68.161403 68.161403-75.734892-68.161403 0 0-45.440935 94.668103 0 0-465.769073-94.668103 0L690.910763-9.678174 690.910763-9.678174zM690.910763 179.659055l0 45.440935c11.360745 0 18.934235-11.359722 18.934235-22.720468C709.844997 191.018777 702.271508 179.659055 690.910763 179.659055zM509.148046 380.356007l181.76374 0 0 0 0-45.440935 0 0L509.148046 334.915072 509.148046 380.356007 509.148046 380.356007zM690.910763 690.868039l0-68.161403-68.161403 79.521125 0-155.256016 68.161403 0 0-45.440935L600.029916 501.53081l0 0c-11.359722 0-22.720468 11.359722-22.720468 22.720468L577.309448 736.308975l-68.161403 0L509.148046 781.74991l90.88187 0 0 0 0 0 0 0 0 0c7.573489 0 11.360745-3.786233 15.146978-7.573489L690.910763 690.868039 690.910763 690.868039zM690.910763 225.098967l0-45.440935 0 0L509.148046 179.658032l0 45.440935L690.910763 225.098967 690.910763 225.098967 690.910763 225.098967zM690.910763 35.762761l0-45.440935L509.148046-9.678174l0 45.440935L690.910763 35.762761zM331.171562 334.915072c-11.359722 0-22.720468 11.359722-22.720468 22.720468 0 15.146978 11.359722 22.720468 22.720468 22.720468l177.976484 0 0-45.440935L331.171562 334.915072 331.171562 334.915072zM509.148046 781.74991 213.781968 781.74991c-11.359722 0-22.720468-11.359722-22.720468-22.720468l0-745.987149c0-11.360745 11.359722-22.720468 22.720468-22.720468l0 0 295.365054 0 0 45.440935L236.502435 35.762761 236.502435 736.308975l272.644587 0L509.147022 781.74991 509.148046 781.74991zM509.148046 225.098967l0-45.440935L331.171562 179.658032c-11.359722 0-22.720468 11.360745-22.720468 22.720468 0 11.360745 11.359722 22.720468 22.720468 22.720468L509.148046 225.098967z"  horiz-adv-x="1024" />

    
    <glyph glyph-name="liulanjilu" unicode="&#59027;" d="M375.184985 691.828924c0-76.555583-62.026682-138.578172-138.582265-138.578172-76.517721 0-138.544403 62.022589-138.544403 138.578172 0 76.512604 62.026682 138.535193 138.544403 138.535193C313.157279 830.364117 375.184985 768.341528 375.184985 691.828924L375.184985 691.828924zM562.235125 761.075031c0-38.273698-31.015388-69.289086-69.293179-69.289086s-69.289086 31.011294-69.289086 69.289086c0 38.277792 31.011294 69.289086 69.289086 69.289086S562.235125 799.352823 562.235125 761.075031L562.235125 761.075031zM763.125481 743.784226c0-38.277792-31.011294-69.289086-69.293179-69.289086-38.277792 0-69.289086 31.011294-69.289086 69.289086s31.011294 69.289086 69.289086 69.289086C732.114187 813.073312 763.125481 782.062018 763.125481 743.784226L763.125481 743.784226zM925.941684 653.711791c0-38.277792-31.011294-69.289086-69.293179-69.289086-38.277792 0-69.289086 31.011294-69.289086 69.289086s31.011294 69.289086 69.289086 69.289086S925.941684 691.989583 925.941684 653.711791L925.941684 653.711791zM313.647443 475.315752c0 0 44.159756 122.099872 213.025745 142.881175 0 0 260.686231 18.186198 305.579697-238.835573 21.922289-125.59037 12.787234-397.625066-188.673104-439.027012-48.63058-9.986445-189.648314 2.434445-171.462117 129.723503 6.415107 45.017286 48.63058 118.280894 0 181.848675C438.343443 296.068322 269.482571 309.056124 313.647443 475.315752"  horiz-adv-x="1024" />

    
    <glyph glyph-name="chenggong1" unicode="&#58936;" d="M965.40416 553.23392c-19.50976 52.24704-47.744 100.41472-83.92064 143.16288-18.26688 21.58592-50.57408 24.27392-72.15872 6.0096-21.58464-18.26688-24.2752-50.5728-6.00832-72.15872C861.4336 561.57184 893.44 474.11968 893.44 384c0-210.32576-171.11424-381.44-381.44-381.44-210.32704 0-381.44 171.11424-381.44 381.44 0 210.32704 171.11296 381.44 381.44 381.44 60.48896 0 118.30784-13.72672 171.85152-40.8 25.2288-12.75648 56.03328-2.64704 68.7936 22.58816 12.76032 25.23392 2.64576 56.03456-22.58816 68.7936C662.05312 850.4064 588.68992 867.84 512 867.84c-65.29536 0-128.66432-12.8-188.34688-38.04416-57.62176-24.37248-109.36064-59.2512-153.7792-103.66976-44.41856-44.41856-79.29856-96.15744-103.66976-153.77792C40.96 512.6656 28.16 449.29536 28.16 384c0-65.29536 12.8-128.6656 38.04416-188.34688 24.37248-57.62176 59.2512-109.36064 103.66976-153.7792s96.15744-79.29856 153.7792-103.66976C383.33568-87.04 446.70464-99.84 512-99.84c65.29536 0 128.6656 12.8 188.34816 38.04416 57.62176 24.3712 109.36064 59.2512 153.77792 103.66976 44.41856 44.41856 79.29856 96.15744 103.66976 153.7792C983.04 255.3344 995.84 318.70464 995.84 384 995.84 442.20672 985.6 499.14496 965.40416 553.23392zM655.13472 571.58656l-40.77696-36.6464c-117.42976-111.25504-211.00288-248.38272-211.00288-248.38272l-68.58112 132.70528-155.79648-75.74144c65.9136-23.4944 166.75712-107.27424 233.29152-189.30176l0.18304-0.03584c39.0592 71.35616 175.5264 198.98112 272.97408 264.12928l38.28992 23.38432c15.08992 8.14848 28.28032 13.73824 38.80192 16.0768-30.0352 68.47104-3.69024 124.11776 0.58496 188.3136C726.8928 627.56224 690.35776 601.4016 655.13472 571.58656z"  horiz-adv-x="1024" />

    
    <glyph glyph-name="calendar" unicode="&#59096;" d="M744.495 614.164c22.865 0 41.4 14.322 41.4 31.99v143.009c0 17.667-18.535 31.99-41.4 31.99-22.863 0-41.398-14.322-41.398-31.99v-143.009c0-17.668 18.535-31.99 41.398-31.99zM287.592 614.164c22.865 0 41.399 14.322 41.399 31.99v143.009c0 17.667-18.534 31.99-41.399 31.99-22.863 0-41.397-14.322-41.397-31.99v-143.009c-0.001-17.668 18.533-31.99 41.397-31.99zM803.334 748.879v-46.758c12.19-13.636 19.609-31.625 19.609-51.355 0-42.582-34.52-77.102-77.104-77.102s-77.102 34.52-77.102 77.102c0 19.729 7.419 37.72 19.609 51.357v46.757h-341.917v-49.976c10.565-13.193 16.899-29.919 16.899-48.136 0-42.582-34.52-77.102-77.103-77.102s-77.102 34.52-77.102 77.102c0 21.149 8.529 40.293 22.318 54.224v43.89h-166.119v-812.105h894.344v812.102h-156.332zM879.141 15.585h-731.58l0 510.565h731.579v-510.564h0.001zM394.093 291.563h-117.123v117.122h117.124v-117.122zM453.932 408.685h117.122v-117.122h-117.122v117.122zM630.894 408.685h117.124v-117.122h-117.124v117.122zM394.093 237.687h-117.123v-117.126h117.124v117.126zM453.932 237.687h117.122v-117.126h-117.122v117.126zM630.894 237.687h117.122v-117.126h-117.122v117.126z"  horiz-adv-x="1024" />

    
    <glyph glyph-name="wodedaifukuan" unicode="&#58986;" d="M921.8048 768 102.1952 768c-44.4416 0-80.896-35.84-80.896-79.6672l0-608.768c0-43.8272 36.352-79.6672 80.896-79.6672l819.712 0c44.4416 0 80.7936 35.84 80.7936 79.6672L1002.7008 688.3328C1002.7008 732.16 966.3488 768 921.8048 768zM960 79.6672c0-20.3776-17.1008-36.9664-38.1952-36.9664L102.1952 42.7008c-21.0944 0-38.1952 16.5888-38.1952 36.9664L64 688.3328c0 20.3776 17.1008 36.9664 38.1952 36.9664l819.712 0c20.992 0 38.1952-16.5888 38.1952-36.9664L960.1024 79.6672zM874.7008 597.2992c0 11.776-9.6256 21.2992-21.2992 21.2992L170.7008 618.5984c-11.776 0-21.2992-9.6256-21.2992-21.2992 0-11.776 9.6256-21.2992 21.2992-21.2992l682.7008 0C865.0752 576 874.7008 585.6256 874.7008 597.2992zM832 490.7008l-128 0c-23.4496 0-42.7008-19.2512-42.7008-42.7008l0-85.2992c0-23.4496 19.2512-42.7008 42.7008-42.7008l128 0c23.4496 0 42.7008 19.1488 42.7008 42.7008l0 85.2992C874.7008 471.4496 855.4496 490.7008 832 490.7008zM832 362.7008l-128 0 0 85.2992 128 0L832 362.7008z"  horiz-adv-x="1024" />

    
    <glyph glyph-name="pingjia" unicode="&#58917;" d="M1031.975006 693.745731 501.464325 142.019252 308.593431 142.019252 308.593431 334.890146 841.032821 884.687916C856.115325 899.770421 880.53278 899.770421 895.615284 884.687916L1031.975006 748.328194C1047.05751 733.245691 1047.05751 708.828236 1031.975006 693.745731ZM868.304766 802.872084 385.741788 296.315967 385.741788 219.16761 462.890146 219.16761 950.159172 721.017676 868.304766 802.872084ZM540.038504 797.818866 77.148358 797.818866 77.148358-50.813068 925.780291-50.813068 925.780291 412.077078C925.780291 440.043357 933.958018 445.829484 961.924298 445.829484 989.929151 445.829484 1002.928649 440.043357 1002.928649 412.077078L1002.928649-50.813068C1002.928649-88.075724 963.042948-127.961426 925.780291-127.961426L77.148358-127.961426C39.885701-127.961426 0-88.075724 0-50.813068L0 797.818866C0 835.120097 39.885701 874.967224 77.148358 874.967224L540.038504 874.967224C568.004783 874.967224 573.79091 861.929151 573.79091 833.962871 573.79091 806.035166 568.004783 797.818866 540.038504 797.818866Z"  horiz-adv-x="1045" />

    
    <glyph glyph-name="login103" unicode="&#58949;" d="M837.30408592 473.2675481L837.30408592 473.2675481c-14.51595659 25.1418678-46.66357692 33.75563845-71.8054447 19.23968186L513.23356724 346.86159151000004 260.96849189 492.50864394c-25.14045381 14.51595659-57.2894895 5.90218455-71.8040321-19.23968187-14.51595659-25.1418678-5.90218455-57.2894895 19.23968183-71.8054447 0 0 296.19021845-168.93362388 304.82942425-169.61187357 0.04380302-0.00565179-2.04322741-0.00706576 0-0.00706574s-0.04380302 0.00141261 0 0.00706574c8.63920575 0.67683708 304.82942422 169.61187355 304.82942422 169.61187357C843.20485788 415.97947257 851.82004115 448.12568029 837.30408592 473.2675481M797.45550393 731.65665111c48.30691972 0 87.60724855-39.30032884 87.60724853-87.60724854L885.06275383 123.94777224999996c0-48.30691972-39.30032884-87.60724855-87.60724855-87.60724856L226.54025692 36.34052228999997c-48.30691972 0-87.60724855 39.30032884-87.60724856 87.60724858L138.93300697 644.04940257c0 48.30691972 39.30032884 87.60724855 87.60724856 87.60724854L797.45550393 731.65665111M797.45550393 836.22014306L226.54025692 836.22014306c-106.13335605 0-192.17074052-86.03738443-192.17074053-192.17074053L34.36951639 123.94777224999996c0-106.13053087 86.03738443-192.17074052 192.17074053-192.17074053l570.91524836 0c106.13335605 0 192.17074052 86.04020964 192.17074052 192.17074053L989.62624442 644.04940257C989.62624442 750.18275862 903.58886134 836.22014306 797.45550393 836.22014306"  horiz-adv-x="1024" />

    
    <glyph glyph-name="shangpinshoucang" unicode="&#58901;" d="M945.453 206.122l-131.829 19.156-58.226 117.979-0.408 0.826c-2.281 4.622-6.955 7.293-11.911 7.93-0.141 0.019-0.283 0.026-0.425 0.042a18.335 18.335 0 0 1-1.123 0.092c-0.263 0.012-0.525 0.007-0.788 0.007s-0.525 0.005-0.788-0.007c-0.376-0.016-0.749-0.053-1.123-0.092-0.142-0.016-0.284-0.023-0.425-0.042-4.956-0.637-9.63-3.308-11.911-7.93l-58.635-118.806-130.916-19.022-0.912-0.133c-12.623-1.834-15.369-19.692-7.28-27.577l94.167-91.791-21.738-126.741-0.155-0.907c-1.024-5.969-0.23-11.58 4.243-16.054 5.418-5.419 13.388-6.054 19.995-2.58l115.479 60.71L855.407-59.1l0.815-0.429c5.286-2.779 11.389-3.086 16.656 0 6.853 4.014 8.852 11.232 7.582 18.634l-21.894 127.65c31.169 30.382 62.338 60.765 93.508 91.146l0.659 0.644c8.089 7.885 5.343 25.743-7.28 27.577zM829.896 104.889c-7.854-7.656-4.673-18.04-3.057-27.462l6.803-39.66 9.082-52.949-92.838 48.808c-10.396 5.466-18.287 0-27.139-4.653l-35.617-18.725-48.369-25.429 17.575 102.466c1.161 6.771 0.177 12.804-4.884 17.737l-7.025 6.848-28.814 28.088-39.85 38.843 106.551 15.482c9.24 1.343 12.327 10.865 15.86 18.024l17.983 36.437 24.585 49.815 47.248-95.735c4.432-8.979 13.309-8.851 21.646-10.062l40.211-5.843 55.875-8.119c-25.275-24.637-50.55-49.275-75.826-73.911zM480.827 2.486H161.454c-10.96 0-15.603 9.819-15.603 15.5l0.03 767.38c0 6.3 4.446 14.112 15.779 14.112H368.827c8.994 0 16.5 7.505 16.5 16.5s-7.506 16.5-16.5 16.5H152.695c-25.332 0-39.536-21.145-39.536-37.336 0-4.923-0.309-771.12-0.309-777.113 0-26.386 22.102-48.543 48.504-48.543h319.472c8.994 0 16.5 7.506 16.5 16.5s-7.505 16.5-16.499 16.5zM670.827 799.478h192.559c10.15 0 17.614-5.063 17.614-15.5v-449.223c0-8.994 7.506-16.5 16.5-16.5s16.5 7.506 16.5 16.5V782.31c0 21.357-7.34 50.168-54.959 50.168H670.827c-8.994 0-16.5-7.505-16.5-16.5s7.506-16.5 16.5-16.5zM812.194 603.092c14.908 5.661 25.535 20.087 25.535 36.956 0 21.792-17.729 39.521-39.521 39.521s-39.521-17.729-39.521-39.521c0-15.358 8.812-28.688 21.64-35.226-44.838-97.846-143.619-165.818-258.292-165.818-115.715 0-215.237 69.218-259.491 168.498 10.342 7.135 17.137 19.06 17.137 32.546 0 21.792-17.729 39.521-39.521 39.521s-39.521-17.729-39.521-39.521c0-19.215 13.787-35.263 31.986-38.792 47.197-114.597 158.989-195.17 289.411-195.17 131.116 0 243.403 81.434 290.158 197.006z"  horiz-adv-x="1024" />

    
    <glyph glyph-name="gerenzhongxin" unicode="&#58899;" d="M512 808.96c-136.704 0-247.808-111.104-247.808-247.808 0-98.816 58.368-184.32 142.336-223.744-155.136-45.568-268.8-188.928-268.8-358.912 0-10.752 8.704-19.456 19.456-19.456 10.752 0 19.456 8.704 19.456 19.456 0 184.832 150.528 335.36 335.36 335.36 136.704 0 247.808 111.104 247.808 247.808S648.704 808.96 512 808.96z m0-456.192c-115.2 0-208.384 93.696-208.384 208.384 0 115.2 93.696 208.384 208.384 208.384 115.2 0 208.384-93.696 208.384-208.384 0-114.688-93.184-208.384-208.384-208.384z m226.816-76.8c-8.704 6.656-20.992 5.12-27.648-3.584-6.656-8.704-5.12-20.992 3.584-27.648 83.968-64 132.096-161.28 132.096-266.752 0-10.752 8.704-19.456 19.456-19.456 10.752 0 19.456 8.704 19.456 19.456 0.512 118.272-53.248 226.816-146.944 297.984z"  horiz-adv-x="1024" />

    
    <glyph glyph-name="quanbudingdan" unicode="&#58926;" d="M127.0784-26.112c0-27.7504 22.528-50.688 49.9712-50.688h637.3376a50.688 50.688 0 0 1 49.9712 51.0976V43.008 640.5632a42.496 42.496 0 0 1-7.8848 25.9584c-6.0416 9.216-15.872 20.224-33.024 36.7104-8.0384 7.68-51.3024 47.872-65.1264 61.0304C687.872 831.488 660.5312 844.8 606.0544 844.8H177.152a50.688 50.688 0 0 1-50.0224-50.688v-820.224zM177.1008 896h428.9536c65.536 0 104.192-15.7696 186.624-94.3616 82.432-78.5408 121.9584-104.3968 121.9584-161.0752v-666.2656c0-56.4736-45.056-102.2976-100.2496-102.2976H177.0496C121.6512-128 76.8-82.0224 76.8-26.112V794.112C76.8 850.3296 122.112 896 177.152 896z m326.9632-307.2c13.9264 0 25.1392 11.4688 25.1392 25.6s-11.264 25.6-25.088 25.6H202.4448a25.3952 25.3952 0 0 1-25.1392-25.6c0-14.1312 11.264-25.6 25.088-25.6h301.6192zM793.6 409.6c13.824 0 25.088 11.4688 25.088 25.6s-11.264 25.6-25.088 25.6H202.496a25.3952 25.3952 0 0 1-25.1392-25.6c0-14.1312 11.264-25.6 25.088-25.6H793.6z m2.048-181.7088c13.8752 0 25.1392 11.4688 25.1392 25.6s-11.264 25.6-25.088 25.6H203.6224a25.3952 25.3952 0 0 1-25.088-25.6c0-14.1312 11.264-25.6 25.088-25.6H795.648z m-158.5152 419.584A25.7536 25.7536 0 0 0 629.76 665.6V858.0096c0 14.1312 11.264 25.6 25.088 25.6 13.9264 0 25.1904-11.4688 25.1904-25.6V691.2h175.9232c13.8752 0 25.1392-11.4688 25.1392-25.6s-11.264-25.6-25.088-25.6H654.848a24.832 24.832 0 0 0-17.7664 7.4752z m153.6-596.2752c13.9264 0 25.1904 11.4688 25.1904 25.6s-11.264 25.6-25.1392 25.6H203.008a25.3952 25.3952 0 0 1-25.1904-25.6c0-14.1312 11.264-25.6 25.1392-25.6h587.776z"  horiz-adv-x="1024" />

    
    <glyph glyph-name="shanchu" unicode="&#58908;" d="M966.128 714.88H840.96c-0.168 0-0.32 0.096-0.488 0.096-0.16 0-0.312-0.096-0.48-0.096H184.064c-0.176 0-0.32 0.096-0.48 0.096-0.16 0-0.304-0.096-0.48-0.096H57.872a32.6 32.6 0 1 1 0-65.208h93.104v-651.928c0-69.32 56.392-125.744 125.712-125.744h470.688c69.32 0 125.712 56.424 125.712 125.744V649.672h93.04a32.6 32.6 0 1 1 0 65.208z m-158.256-717.136c0-33.376-27.136-60.528-60.504-60.528H276.688c-33.352 0-60.496 27.16-60.496 60.528V649.672h591.68v-651.928zM346.488 81.256a32.608 32.608 0 0 1 32.608 32.608V473.112a32.6 32.6 0 0 1-65.216 0v-359.24a32.6 32.6 0 0 1 32.608-32.616zM512 81.256a32.6 32.6 0 0 1 32.608 32.608V473.112a32.6 32.6 0 0 1-65.216 0v-359.24A32.6 32.6 0 0 1 512 81.256zM677.544 81.256a32.584 32.584 0 0 1 32.6 32.608V473.112c0 18.008-14.576 32.6-32.6 32.6s-32.608-14.592-32.608-32.6v-359.24a32.592 32.592 0 0 1 32.608-32.616zM318.848 738.4a32.608 32.608 0 0 1 32.608 32.6c0 23.808 64.048 59.792 160.576 59.792 96.512 0 160.544-35.984 160.544-59.792a32.6 32.6 0 0 1 32.608-32.6 32.592 32.592 0 0 1 32.6 32.6C737.792 842.264 640.736 896 512.032 896 383.312 896 286.24 842.264 286.24 771a32.608 32.608 0 0 1 32.608-32.6z"  horiz-adv-x="1024" />

    
    <glyph glyph-name="coupon" unicode="&#58903;" d="M934.925 483.514c24.201 16.066 24.878 28.351 24.878 49.757V682.533c0 41.218-33.416 74.634-74.634 74.634H138.83c-41.217 0-74.633-33.416-74.633-74.634v-149.262c0-22.296 1.552-37.168 24.878-49.757 33.988-15.827 74.634-47.805 74.634-99.516 0-67.106-42.183-88.939-73.167-99.403-21.808-13.648-26.346-36.123-26.346-49.86v-149.268c0-41.223 33.416-74.634 74.634-74.634h746.339c41.218 0 74.634 33.41 74.634 74.634V234.73400000000004c0 27.172-6.24 35.784-24.878 49.757-54.338 28.013-74.634 52.95-74.634 99.512 0.001 46.562 19.008 69.732 74.635 99.511zM910.048 243.87v-133.53c0-27.474-22.276-49.756-49.757-49.756H163.708c-27.48 0-49.757 22.28-49.757 49.756V243.87c57.847 20.565 99.513 75.232 99.513 140.128 0 64.902-41.666 119.568-99.513 140.127V657.656c0 27.48 22.276 49.756 49.757 49.756H860.29c27.48 0 49.757-22.275 49.757-49.756v-133.53c-57.842-20.56-99.513-75.227-99.513-140.128 0-64.897 41.671-119.564 99.513-140.129z m-261.22 189.89H554.91l101.95 109.537c4.409 4.817 4.409 12.633 0 17.455l-15.956 17.454c-4.409 4.822-11.548 4.822-15.957 0L511.881 456.73l-113.11 121.515c-4.374 4.782-11.465 4.782-15.833 0l-15.833-17.32c-4.374-4.782-4.374-12.534 0-17.316l102.254-109.85H375.17c-6.872 0-12.44-5.574-12.44-12.44v-24.883c0-6.871 5.568-12.44 12.44-12.44h111.95v-49.755h-111.95c-6.872 0-12.44-5.568-12.44-12.44v-24.877c0-6.867 5.568-12.44 12.44-12.44h111.95v-87.073c0-6.866 5.568-12.439 12.44-12.439h24.877c6.872 0 12.44 5.573 12.44 12.44v87.072h111.95c6.872 0 12.44 5.573 12.44 12.44V321.79999999999995c0 6.872-5.568 12.44-12.44 12.44h-111.95v49.756h111.95c6.872 0 12.44 5.568 12.44 12.44v24.882c0 6.867-5.568 12.44-12.44 12.44z"  horiz-adv-x="1024" />

    
    <glyph glyph-name="ecurityCode" unicode="&#58907;" d="M513.807059-128C351.171765-128 58.428235 126.19294100000002 54.211765 376.16941199999997V662.287059a93.364706 93.364706 0 0 0 81.317647 88.545882 570.428235 570.428235 0 0 1 163.237647 40.357647A393.336471 393.336471 0 0 1 446.945882 872.508235a101.797647 101.797647 0 0 0 120.470589 5.421177A629.458824 629.458824 0 0 1 716.8 792.395294a1255.303529 1255.303529 0 0 1 169.863529-38.550588 98.785882 98.785882 0 0 0 79.510589-90.955294 2911.171765 2911.171765 0 0 0-3.011765-291.538824C924.611765 49.09176500000001 672.828235-128 513.807059-128z m0 963.764706a39.152941 39.152941 0 0 1-24.696471-7.830588A438.512941 438.512941 0 0 0 319.247059 734.569412a608.376471 608.376471 0 0 0-180.705883-43.369412 33.731765 33.731765 0 0 1-24.094117-30.117647v-283.708235C118.663529 155.10588199999995 389.722353-67.76470600000005 513.807059-67.76470600000005s354.183529 148.178824 391.529412 444.536471c9.035294 175.887059 0 281.901176 0 283.105882a38.550588 38.550588 0 0 1-29.515295 33.731765 1287.830588 1287.830588 0 0 0-180.705882 41.562353A676.442353 676.442353 0 0 0 536.094118 829.741176a37.345882 37.345882 0 0 1-24.094118 6.02353zM784.865882 479.171765L487.905882 198.47529399999996a40.357647 40.357647 0 0 0-49.392941-4.818823l-7.830588 6.625882-161.430588 171.068235a40.357647 40.357647 0 1 0 60.235294 55.416471l133.722353-141.552941 267.444706 252.988235a40.357647 40.357647 0 1 0 55.41647-60.235294"  horiz-adv-x="1024" />

    
    <glyph glyph-name="qiandai" unicode="&#58909;" d="M399.1 627.3S97.8 458.6 216.3 183.9c87.6-203 439.1-171.1 439.1-171.1 11.2 1.1 342.2 17.8 285.5 328.3C903.1 548 725.8 626.4 706.7 630c-19.1 3.5-307.6-2.7-307.6-2.7zM600.6 0.7c-105.5 0-325 19.9-393.7 179.2C86.3 459.7 391 634.4 394.1 636.1c1.4 0.8 3.1 1.3 4.7 1.3 29.6 0.6 290.2 6.1 309.6 2.5 24.3-4.5 204.1-87.9 242.3-297 16.5-90.4 2.4-165.4-42-223-74.2-96.3-210.9-113.9-251.1-117-3.6-0.3-25.1-2.2-57-2.2zM401.9 617.2c-12.5-7.4-78.1-48.2-131.1-115.4-77.5-98.3-92.7-203.9-45.3-313.9 83.7-194.1 425.5-165.3 428.9-165 39.9 3.1 169.3 19.7 238.4 109.4 40.7 52.8 53.5 122.5 38.1 207C894.7 537.4 727.4 615.9 704.8 620c-13.3 2.5-187.4-0.3-302.9-2.8zM355.8 599.6s5.1-51.9 90.5-90.4c85.4-38.5 223.3-32.4 283.2 40.2 59.8 72.6 35.2 81.7 35.2 81.7l-408.9-31.5zM562.9 475.9c-43.1 0-86 8.4-120.8 24.1-89.7 40.4-96.2 96.3-96.4 98.6-0.3 2.7 0.6 5.4 2.3 7.5 1.7 2.1 4.3 3.4 7 3.6l408.8 31.5c1.4 0.1 2.9-0.1 4.3-0.6 3.9-1.4 8.8-5.6 10.7-12.9 4.7-17.4-8.9-45.1-41.6-84.8-38.1-46.2-106.4-67-174.3-67zM368.7 590.4c6.2-15.7 25-46.5 81.7-72.1 82.9-37.3 214.6-31.1 271.2 37.4 34.2 41.5 37.9 59.1 37.9 64.8l-390.8-30.1z m-12.9 9.2h0.3-0.3zM238.1 263.5c-30 191 116.6 331.9 122.9 337.8l25.9-27.4c-1.4-1.3-138.4-133.5-111.5-304.6l-37.3-5.8zM238.1 253.4c-4.9 0-9.2 3.6-10 8.5-30.9 197.1 119.6 340.7 126 346.8 4.1 3.8 10.4 3.6 14.3-0.4l25.9-27.4c3.8-4 3.6-10.4-0.4-14.3-1.3-1.3-134.4-130.8-108.5-295.7 0.4-2.6-0.2-5.4-1.8-7.5-1.6-2.2-4-3.6-6.6-4l-37.3-5.8c-0.6-0.1-1.1-0.2-1.6-0.2z m122.7 333.5c-29.1-30.2-134.2-151.7-114.1-311.8l17.4 2.7C245.9 425.9 345.2 544.2 372.9 574l-12.1 12.9zM305.9 227.9c-2-26-24.7-45.5-50.7-43.5-26 2-45.5 24.7-43.5 50.6 2 26 24.6 45.5 50.6 43.5 26.1-1.9 45.6-24.6 43.6-50.6zM258.8 174.1c-1.4 0-2.9 0.1-4.4 0.2-15.3 1.2-29.2 8.2-39.1 19.8-10 11.6-14.8 26.4-13.7 41.7 1.2 15.3 8.2 29.2 19.8 39.2 11.6 10 26.4 14.8 41.7 13.7 15.3-1.2 29.2-8.2 39.2-19.8 10-11.6 14.8-26.4 13.7-41.7-2.3-30.1-27.5-53.1-57.2-53.1z m-0.1 94.5c-8.9 0-17.3-3.1-24.1-9-7.5-6.4-12.1-15.5-12.8-25.4-0.8-9.9 2.4-19.5 8.8-27 6.5-7.5 15.4-12.1 25.3-12.8 20.4-1.8 38.3 13.8 39.8 34.2 0.8 9.9-2.4 19.5-8.8 27-6.5 7.5-15.5 12.1-25.4 12.8-0.9 0.1-1.8 0.2-2.8 0.2zM114.5 364.9c57.8 184.5 251.7 245.8 259.9 248.3l11.1-36.1c-1.8-0.6-183.3-58.3-235-223.5l-36 11.3zM150.5 343.4c-1 0-2 0.2-3 0.5l-36 11.3c-5.3 1.7-8.3 7.3-6.6 12.7C164.4 558 363 620.3 371.4 622.8c5.3 1.6 10.9-1.4 12.6-6.7l11.1-36.1c1.6-5.3-1.4-11-6.7-12.6-1.8-0.6-178.4-57.5-228.4-216.9-0.8-2.6-2.6-4.7-5-5.9-1.3-0.8-2.9-1.2-4.5-1.2z m-23.2 28l16.8-5.3c49.5 141 190.9 202.8 229 217.1l-5.2 16.9c-39.7-14-187.7-76.4-240.6-228.7zM159.4 302.8c-13.3-22.4-42.3-29.8-64.7-16.6-22.4 13.3-29.8 42.3-16.5 64.7 13.3 22.4 42.3 29.8 64.7 16.5 22.4-13.1 29.8-42.1 16.5-64.6zM118.6 269.6c-9.9 0-20 2.6-29.1 8-27.2 16.2-36.2 51.4-20.1 78.6 16.1 27.2 51.3 36.2 78.6 20.1 27.2-16.1 36.2-51.4 20.1-78.6-10.7-18-29.8-28.1-49.5-28.1z m0.3 94.4c-12.7 0-25.1-6.5-32-18.2-10.4-17.6-4.6-40.4 13-50.9 17.7-10.4 40.5-4.6 50.9 13 10.4 17.6 4.6 40.4-13 50.9-6 3.6-12.5 5.2-18.9 5.2z m40.5-61.2h0.3-0.3zM804 735.7c104.5 40-64.5-136.1-64.5-136.1-222-150.3-377.4 13.4-377.4 13.4l-89.6 117.8s308.6-80.5 531.5 4.9zM552.9 526.8c-120.9 0-197 78.1-198.1 79.2l-90.3 118.6c-2.6 3.4-2.8 8.1-0.4 11.7 2.4 3.6 6.8 5.3 11 4.2 3.1-0.8 308-78.7 525.3 4.5 16.2 6.2 36.1 11.7 44.8-1.4 15.7-23.7-44.8-95.2-98.4-151.1-72.2-48.9-137.9-65.7-193.9-65.7zM297.6 714.6l72.6-95.4c5.4-5.6 151.8-154.7 363.7-11.2 50.1 52.5 92.4 108 94.1 123.5h-0.1c-2.6 0-8.5-0.8-20.3-5.3-187-71.6-428.8-29.3-510-11.6zM804 735.7h0.3-0.3zM269 757.3c11 26 79.1 46.2 125.6 32.3 107.8-32.3 104.1 1.4 125.1 13.3 21 12 71 13.3 140.6-16.7 67.2-28.9 116.7 7.8 130.3 7.5 106.8-2.4 46-77.9 21.9-100.7-72.1-68-148.3-22.4-148.3-22.4s-37.3 31.7-82.1 3.6c-47.6-29.8-89.6-65.2-141.7-19.4-42.9 37.8-64.9 19.4-98.7 27.5-17.4 4.3-97 17.8-72.7 75zM491.2 622.7c-18.2 0-37.3 6.8-57.6 24.7-26.2 23.1-42.7 22.8-61.9 22.6-10-0.2-20.4-0.3-32.4 2.6l-3.8 0.9c-18.3 4.1-61.2 13.6-76.1 42.5-6.9 13.4-6.8 28.6 0.3 45.3 13.7 32.2 88.4 52.8 137.8 38 79.6-23.9 92.5-10.5 103.8 1.2 3.8 3.9 7.7 8 13.3 11.2 22.2 12.7 74.7 16.1 149.6-16.2 47.1-20.3 84.5-5.8 106.8 2.8 8.8 3.4 13.6 5.1 19.8 5.5 38-0.9 61.1-11.1 68.5-30.4 13.7-35.7-34.4-82.5-39.9-87.7-76.9-72.4-159.7-24.2-160.5-23.7-2.6 2-33.8 27.4-71.6 3.7l-13.3-8.5c-26.5-17-53.6-34.5-82.8-34.5z m-113.5 67.6c18.9 0 40.5-2.3 69.3-27.7 41.4-36.5 74.4-15.2 116.1 11.7l13.5 8.6c40.5 25.4 79.2 8.1 94-4.5 1.5-0.7 69.3-39.7 134.9 22 17.1 16.1 41.7 48.2 34.9 65.8-4.1 10.6-21.8 16.8-50.1 17.4-1.6-0.1-7.4-2.3-12-4.1-23.5-9.1-67.4-26.1-122.1-2.5-72.8 31.3-116.9 25.5-131.6 17.2-3.1-1.8-5.7-4.5-8.8-7.7-17.9-18.6-39.6-31.8-124.2-6.5-44.1 13.2-105.4-7.8-113.4-26.5-4.7-11.1-5-20.3-0.9-28.2 10.5-20.5 48.3-28.9 62.5-32l4.1-0.9c9.6-2.3 18.3-2.3 27.4-2.1 2.2-0.1 4.3 0 6.4 0zM555.4 109.4c-5.6 0-10.1 4.5-10.1 10.1V168h-67.4c-5.6 0-10.1 4.5-10.1 10.1v34.5c0 5.6 4.5 10.1 10.1 10.1h67.4v3.9h-67.4c-5.6 0-10.1 4.5-10.1 10.1v34.5c0 5.6 4.5 10.1 10.1 10.1h44.3l-83.4 133c-1.9 3.1-2.1 7-0.3 10.3 1.8 3.2 5.2 5.2 8.8 5.2h84.3c4 0 7.6-2.3 9.2-5.9l30.5-67.4c9.7-21.3 14.7-32.6 19.6-43.5l1-2.3c3.8 8.3 50 113.2 50 113.2 1.6 3.7 5.3 6 9.3 6H734c3.7 0 7.1-2 8.8-5.2 1.8-3.2 1.7-7.1-0.3-10.3l-83.4-133h44.3c5.6 0 10.1-4.5 10.1-10.1v-34.5c0-5.6-4.5-10.1-10.1-10.1h-66.6v-3.9h66.6c5.6 0 10.1-4.5 10.1-10.1v-34.5c0-5.6-4.5-10.1-10.1-10.1h-66.6v-48.5c0-5.6-4.5-10.1-10.1-10.1h-71.3zM734 419.7h0.1m-0.1 0l-93.1-148.5h62.6v-34.5h-76.7v-24.1h76.7v-34.5h-76.7v-58.6h-71.4v58.6h-77.5v34.5h77.5v24.1h-77.5v34.5h62.6l-93.1 148.5h84.3l30.5-67.4c15.2-33.3 18.9-42.1 28.5-63.4h2.4c10 21.3 14.4 31.7 28.5 63.4l29.7 67.4H734m0.1 20.2h-82.8c-8 0-15.3-4.7-18.5-12.1l-29.7-67.4L595 342c-1-2.3-2-4.5-2.9-6.6-3 6.8-6.7 14.8-11.5 25.3L550.1 428c-3.3 7.2-10.5 11.9-18.4 11.9h-84.3c-7.4 0-14.1-4-17.7-10.4-3.6-6.4-3.3-14.3 0.6-20.5L504 291.4h-26.1c-11.2 0-20.2-9-20.2-20.2v-34.5c0-4.5 1.5-8.7 4-12-2.5-3.4-4-7.5-4-12v-34.5c0-11.2 9-20.2 20.2-20.2h57.3v-38.4c0-11.2 9-20.2 20.2-20.2h71.4c11.2 0 20.2 9 20.2 20.2V158h56.4c11.2 0 20.2 9 20.2 20.2v34.5c0 4.5-1.5 8.7-4 12 2.5 3.4 4 7.5 4 12v34.5c0 11.2-9 20.2-20.2 20.2h-26.1l73.1 116.5c2.4 3.3 3.8 7.4 3.8 11.8 0.1 11.1-8.9 20.2-20.1 20.2z m-0.1-40.4h0.1-0.1z"  horiz-adv-x="1024" />

    
    <glyph glyph-name="xiaojiantou" unicode="&#58897;" d="M515.86245642 190.88125268c-30.89897239 0-57.93548844 11.58669033-81.11022693 34.76142883L214.5969662 472.83446083C199.1471405 488.2842865 203.00959693 511.45902502 218.45874366 526.90885069c15.44982566 15.44914674 38.62456418 11.58736926 54.07371095-3.86245642l224.0177197-247.19245826c3.86313534-3.86245642 11.58736926-7.72491284 19.31228212-7.72491282s15.44914674 3.86313534 23.17405956 11.58736924l212.43170835 247.19245826c15.44914674 15.44914674 38.62320633 19.31160316 54.073032 3.86245641 15.44914674-15.44982566 19.31160316-38.62456418 3.86177749-54.07371092L596.97268333 229.50445897999998c-19.31228209-27.03651601-46.34879809-38.62320633-81.1102269-38.62320631 3.86245642 0 0 0 0 0z"  horiz-adv-x="1024" />

    
    <glyph glyph-name="ziyuan" unicode="&#58910;" d="M191.825992 490.492659l640.348016 0 0-485.133225-640.348016 0 0 485.133225ZM804.33279-128H219.66721a194.888526 194.888526 0 0 0-194.888526 194.888526v361.935835a194.888526 194.888526 0 0 0 194.888526 194.888526h584.66558a194.888526 194.888526 0 0 0 194.888526-194.888526v-361.935835a194.888526 194.888526 0 0 0-194.888526-194.888526z m-584.66558 696.030451a139.20609 139.20609 0 0 1-139.20609-139.20609v-361.935835a139.20609 139.20609 0 0 1 139.20609-139.20609h584.66558a139.20609 139.20609 0 0 1 139.20609 139.20609v361.935835a139.20609 139.20609 0 0 1-139.20609 139.20609zM866.001088 568.030451a27.841218 27.841218 0 0 0-26.866776 20.741708L773.289831 834.05329 195.166939 679.116911 215.491028 603.66721a27.841218 27.841218 0 1 0-53.733551-13.920609l-27.841218 102.873301a27.841218 27.841218 0 0 0 19.628059 34.105492L785.81838 895.025557a27.841218 27.841218 0 0 0 34.105492-19.628058L892.867863 603.66721a27.841218 27.841218 0 0 0-19.767265-34.105492 31.182164 31.182164 0 0 0-7.09951-1.531267zM964.419793 108.650353h-139.20609a132.245786 132.245786 0 0 0 0 264.491572h139.20609a27.841218 27.841218 0 0 0 0-55.682436h-139.20609a76.56335 76.56335 0 0 1 0-153.126699h139.20609a27.841218 27.841218 0 0 0 0-55.682437z"  horiz-adv-x="1024" />

    
    <glyph glyph-name="xingming" unicode="&#58922;" d="M512 341.333333a234.666667 234.666667 0 1 0 0 469.333334 234.666667 234.666667 0 0 0 0-469.333334z m0 42.666667a192 192 0 1 1 0 384 192 192 0 0 1 0-384zM512 341.333333h-85.333333c-117.802667 0-213.333333-138.197333-213.333334-256v-42.666666h298.666667v-42.666667H170.666667v85.333333c0 141.397333 114.602667 298.666667 256 298.666667h85.333333v-42.666667zM597.333333 256h256v-42.666667h-256zM597.333333 213.333333h42.666667v-42.666666h-42.666667zM810.666667 213.333333h42.666666v-42.666666h-42.666666zM597.333333 170.666667h256v-42.666667h-256zM512 42.666667h384v-42.666667h-384z"  horiz-adv-x="1024" />

    
    <glyph glyph-name="xingbie" unicode="&#58925;" d="M320 341.333333a234.666667 234.666667 0 1 0 0 469.333334 234.666667 234.666667 0 0 0 0-469.333334z m0 42.666667a192 192 0 1 1 0 384 192 192 0 0 1 0-384zM704-42.666667a234.666667 234.666667 0 1 0 0 469.333334 234.666667 234.666667 0 0 0 0-469.333334z m0 42.666667a192 192 0 1 1 0 384 192 192 0 0 1 0-384zM682.666667 725.333333h42.666666v-341.333333h-42.666666zM597.333333 640h213.333334v-42.666667h-213.333334zM298.666667 384h42.666666v-341.333333H298.666667zM318.933333 72.106667l75.434667 75.392 30.165333-30.165334-105.6-105.6L213.333333 117.333333l30.165334 30.165334z"  horiz-adv-x="1024" />

    
    <glyph glyph-name="mima-show" unicode="&#58918;" d="M90.624 349.18399999999997a51.2 51.2 0 0 0 4.096 75.264L353.28 657.92a236.544 236.544 0 0 0 317.44 0l258.56-233.472 4.608-4.608a51.2 51.2 0 0 0-5.632-75.264L665.6 118.78399999999999a236.544 236.544 0 0 0-307.2 0l-262.656 225.28z m307.2-181.76a172.544 172.544 0 0 1 225.792 0L877.568 384l-249.856 225.28a172.544 172.544 0 0 1-231.424 0L146.432 384zM512 249.34400000000005A134.656 134.656 0 1 0 646.656 384 134.656 134.656 0 0 0 512 249.34400000000005z m0 64A70.656 70.656 0 1 1 441.856 384 70.144 70.144 0 0 1 512 313.34400000000005z"  horiz-adv-x="1024" />

    
    <glyph glyph-name="sort-nomal" unicode="&#59227;" d="M755.4 465.5c0-8.2-3-15.4-9-21.4-6-6-13.2-9-21.4-9H299c-8.2 0-15.4 3-21.4 9-6 6-9 13.1-9 21.4 0 8.2 3 15.4 9 21.4l213 213c6 6 13.1 9 21.4 9 8.2 0 15.4-3 21.4-9l213-213c6-6 9-13.1 9-21.4z m-9-161.1c6-6 9-13.2 9-21.4s-3-15.4-9-21.4l-213-213c-6-6-13.2-9-21.4-9s-15.4 3-21.4 9l-213 213c-6 6-9 13.1-9 21.4 0 8.2 3 15.4 9 21.4 6 6 13.1 9 21.4 9h426c8.3 0 15.4-3 21.4-9z"  horiz-adv-x="1024" />

    
    <glyph glyph-name="sort-desc" unicode="&#59228;" d="M746.4 304.4c6-6 9-13.2 9-21.4s-3-15.4-9-21.4l-213-213c-6-6-13.2-9-21.4-9s-15.4 3-21.4 9l-213 213c-6 6-9 13.1-9 21.4 0 8.2 3 15.4 9 21.4 6 6 13.1 9 21.4 9h426c8.3 0 15.4-3 21.4-9z"  horiz-adv-x="1024" />

    
    <glyph glyph-name="sort-asc" unicode="&#59229;" d="M755.4 465.5c0-8.2-3-15.4-9-21.4s-13.2-9-21.4-9H299c-8.2 0-15.4 3-21.4 9s-9 13.1-9 21.4c0 8.2 3 15.4 9 21.4l213 213c6 6 13.1 9 21.4 9 8.2 0 15.4-3 21.4-9l213-213c6-6 9-13.1 9-21.4z"  horiz-adv-x="1024" />

    
    <glyph glyph-name="shenqingfahuo" unicode="&#58933;" d="M768 192.1c-51 0-92.4-41.3-92.4-92.4 0-51 41.4-92.4 92.4-92.4 51 0 92.4 41.4 92.4 92.4 0 51-41.4 92.4-92.4 92.4zM312.9 192.1c-51.1 0-92.4-41.4-92.4-92.4 0-51 41.4-92.4 92.4-92.4 51 0 92.4 41.4 92.4 92.4 0 51-41.4 92.4-92.4 92.4zM931.5 422.8l-83.2 149.9c-17 20.7-28.5 37.7-55.9 37.7H662.1V723.3c0 20.7-16.7 37.7-37.2 37.7H101.2C80.7 761 64 744 64 723.3v-564.7c0-20.8 16.7-37.6 37.2-37.7h74.4c9.2 64.9 63.9 115.1 130.6 115.1 66.7 0 121.5-50.2 130.6-115.1h187.9c9.2 64.9 63.9 115.1 130.6 115.1s121.5-50.1 130.6-115h37c9.8 0 19.3 3.9 26.2 10.9 7 7 10.9 16.6 10.9 26.5V346.8c0 35.7-28.5 76-28.5 76z m-241.7-74.2V533.4h91.5c6 0 14.4-8.8 14.4-8.8L874.4 380c6.9-10.2 14.5-22.2 14.5-31.4H689.8z"  horiz-adv-x="1024" />

    
    <glyph glyph-name="shijian" unicode="&#59022;" d="M481.28 94.20799999999997h61.44v-77.824h-61.44zM798.72 414.72h77.824v-61.44H798.72zM136.192 414.72h77.824v-61.44h-77.824zM512-59.39200000000005C267.264-59.39200000000005 68.608 139.264 68.608 384c0 125.952 54.272 246.784 147.456 330.752l54.272-61.44C193.536 584.704 150.528 486.4 150.528 384c0-199.68 162.816-361.472 361.472-361.472S873.472 184.32000000000005 873.472 384C873.472 621.568 675.84 745.472 481.28 745.472v81.92c235.52 0 474.112-152.576 474.112-443.392 0-244.736-198.656-443.392-443.392-443.392zM481.28 820.224h81.92v-443.392h-81.92zM499.67104 427.2128l63.6928-51.52768-108.83072-134.5536-63.6928 51.52768z"  horiz-adv-x="1024" />

    
    <glyph glyph-name="youhuiquan1" unicode="&#59137;" d="M884.3 124.2H370.4V445.8h513.9l-25-94.2L933 208.8zM932 91.2H91.2V268.7l85.9 132.8-85.9 108.6V721H932v-215.2l-77.7-106L932 268v-176.8z m-774.8 66H866V250l-90.7 153.8L866 527.4V655H157.2v-121.9l101.1-127.6-101.1-156.2v-92.1zM344.1 685.9h66V158h-66zM506.9 534.1h196.5v-66H506.9zM506.9 344.1h196.5v-66H506.9z"  horiz-adv-x="1024" />

    
    <glyph glyph-name="xianshangtuikuan" unicode="&#59128;" d="M883.989333 315.328a32.213333 32.213333 0 0 0-32 32S853.333333 375.253333 853.333333 384a363.114667 363.114667 0 1 1-226.901333-336.149333 53.056 53.056 0 0 0 12.906667 2.133333 32 32 0 0 0 32-32 33.578667 33.578667 0 0 0-23.061334-30.208A426.496 426.496 0 1 0 917.333333 384c0-6.229333 7.552-68.672-33.344-68.672zM650.666667 405.333333h-128v-64h85.333333a32 32 0 0 0 0-64h-85.333333v-74.666666a32 32 0 0 0-64 0V277.333333h-85.333334a32 32 0 0 0 0 64h85.333334v64h-128a32 32 0 0 0 0 64h95.168l-35.605334 61.674667a26.666667 26.666667 0 0 0 46.186667 26.666667l37.333333-64.661334a26.24 26.24 0 0 0 1.002667-23.68h42.496a26.176 26.176 0 0 0 0.981333 23.68l37.333334 64.661334a26.666667 26.666667 0 0 0 46.186666-26.666667L566.144 469.333333H650.666667a32 32 0 0 0 0-64zM951.808 117.141333l-87.68-87.68a26.666667 26.666667 0 1 0-37.717333 37.717334L865.898667 106.666667H650.666667a32 32 0 0 0 0 64h215.616l-39.637334 39.658666a26.666667 26.666667 0 1 0 37.696 37.696l87.68-87.68A91.925333 91.925333 0 0 0 960 138.666667a64.234667 64.234667 0 0 0-8.192-21.525334z"  horiz-adv-x="1024" />

    
    <glyph glyph-name="guanbi" unicode="&#58904;" d="M583.168 372.224L958.464 747.52c18.944 18.944 18.944 50.176 0 69.12l-2.048 2.048c-18.944 18.944-50.176 18.944-69.12 0L512 442.88 136.704 818.688c-18.944 18.944-50.176 18.944-69.12 0l-2.048-2.048c-19.456-18.944-19.456-50.176 0-69.12l375.296-375.296L65.536-3.072c-18.944-18.944-18.944-50.176 0-69.12l2.048-2.048c18.944-18.944 50.176-18.944 69.12 0L512 301.056 887.296-74.24c18.944-18.944 50.176-18.944 69.12 0l2.048 2.048c18.944 18.944 18.944 50.176 0 69.12L583.168 372.224z"  horiz-adv-x="1024" />

    
    <glyph glyph-name="dingbu" unicode="&#58998;" d="M66.954 861.019H964.24v-92.823H66.954V861.019zM845.006 368.58900000000006L516.828 696.7719999999999 188.649 368.59400000000005l43.757-43.757 251.927 251.927v-669.989h61.882v673.09l255.034-255.034z"  horiz-adv-x="1024" />

    
    <glyph glyph-name="icon_kefu" unicode="&#58905;" d="M514.218667 125.895111c4.664889 0 18.289778 0.312889 23.068444 0.853333 45.767111 0 83.768889 26.311111 98.986667 64.512a6.627556 6.627556 0 0 1-3.640889 8.163556 6.912 6.912 0 0 1-8.675556-2.730667c-0.170667-0.312889-32.597333-25.372444-89.144889-25.372444-10.609778-1.422222-20.935111-0.398222-30.72-0.398222-49.607111 0.056889-71.708444 19.399111-71.879111 19.569777-2.503111 2.190222-6.343111 2.247111-8.903111 0.113778s-3.157333-5.831111-1.393778-8.675555c14.506667-24.775111 51.484444-56.035556 92.302223-56.035556z m325.831111 167.736889a342.926222 342.926222 0 0 0-162.56-194.901333c-2.816-1.479111-15.388444 1.450667-9.073778 8.248889l0.312889 0.284444c75.776 68.437333 80.440889 135.367111 72.106667 233.045333-7.281778 85.418667-57.941333 166.456889-83.512889 203.036445l-1.792-1.080889a7.964444 7.964444 0 0 1-14.307556-3.384889c-2.673778-25.315556-8.476444-42.865778-12.515555-51.541333-17.208889-37.148444-45.397333-59.420444-86.556445-66.844445-64.824889-11.690667-129.308444-25.258667-194.104889-37.148444-40.391111-7.452444-75.064889-52.280889-68.266666-97.934222 15.388444-103.708444 86.499556-178.062222 106.211555-192.568889-0.597333 0.426667-2.56-6.968889-11.491555-7.879111a344.547556 344.547556 0 0 0-185.315556 192.341333c-23.665778 73.614222-24.405333 145.066667 0.056889 240.526222a344.632889 344.632889 0 0 0 322.56 221.44c148.366222 0 274.488889-92.956444 323.157333-223.061333 13.994667-45.283556 30.264889-129.877333 5.091556-222.577778z m-465.550222-208.64c-0.056889-0.056889-0.056889-0.056889 0 0zM824.888889 312.888889c0-22.215111 21.248-43.662222 51.342222-46.108445-31.601778-139.264-159.886222-254.890667-318.805333-268.117333-9.528889 22.897778-32.938667 39.111111-60.472889 39.111111-35.982222 0-65.109333-27.562667-65.109333-61.553778s29.127111-61.525333 65.109333-61.525333c28.984889 0 53.276444 18.033778 61.696 42.808889 183.950222 14.506667 331.406222 148.792889 362.183111 313.344 27.164444 10.979556 46.279111 36.807111 46.279111 66.986667v143.587555c0 40.135111-33.820444 72.675556-75.548444 72.675556-0.597333 0-1.194667-0.113778-1.792-0.113778-40.874667 171.434667-197.12 299.320889-384.455111 299.320889-192.512 0-352.312889-134.940444-387.754667-313.486222C83.114667 533.845333 56.888889 504.490667 56.888889 469.048889v-141.880889c0-39.765333 32.938667-72.049778 73.614222-72.049778C153.457778 255.118222 199.111111 284.728889 199.111111 312.888889v142.222222c0 35.555556-2.332444 60.16-19.911111 67.072 27.420444 152.348444 162.844444 268.231111 326.115556 268.231111 162.474667 0 297.472-114.716444 325.802666-266.040889-2.816-3.612444-7.736889-30.464-6.229333-40.817777 1.507556-10.382222 0-154.368 0-170.666667z"  horiz-adv-x="1024" />

    
    <glyph glyph-name="guanyuwomen" unicode="&#59010;" d="M524.575-79.495c255.102 0 459.902 206.597 459.902 461.699S779.677 842.105 524.575 842.105 62.877 637.305 62.877 382.204s206.597-461.699 461.698-461.699z m0-46.709c-280.252 0-506.61 228.155-506.61 508.408S244.323 888.814 524.575 888.814s506.611-226.358 506.611-506.61-226.358-508.408-506.61-508.408z m26.948 795.846c-16.169 0-28.744-5.39-41.32-16.168-10.778-10.78-17.964-25.151-17.964-41.32s5.39-28.743 17.965-41.319c10.778-10.779 25.15-16.168 41.319-16.168 16.168 0 28.744 5.39 41.32 16.168 10.778 10.779 16.168 25.151 16.168 41.32 0 16.168-5.39 28.743-16.169 41.319-12.575 10.779-25.15 16.168-41.32 16.168z m-3.593-513.796c-5.39 5.39-7.186 16.168-7.186 30.54 0 5.39 0 14.372 1.796 25.15 1.797 10.78 3.593 21.559 5.39 30.541l21.558 111.383c1.796 10.779 3.593 21.558 3.593 34.133s1.796 21.558 1.796 25.15c0 23.355-5.39 43.117-17.965 57.489-10.779 14.372-26.947 21.557-48.505 21.557-10.779 0-23.354-3.593-37.726-8.982-12.576-5.39-26.948-12.575-41.32-21.558l-5.39-34.133c3.594 1.796 8.983 5.39 14.373 7.186 5.39 1.796 12.575 3.593 17.965 3.593 10.779 0 19.761-3.593 23.354-8.983 3.593-5.39 5.39-16.168 5.39-30.54 0-7.186 0-16.168-1.797-25.15-1.796-8.983-3.593-19.762-5.39-30.541l-19.76-111.383c-1.797-12.575-3.594-21.558-3.594-30.54-1.796-8.983-1.796-17.965-1.796-26.947 0-23.355 5.39-41.32 17.965-57.488 12.575-14.372 28.744-21.558 50.301-21.558 14.372 0 25.151 1.796 35.93 7.186 10.78 5.39 25.151 12.575 41.32 23.354l5.39 34.134-14.373-7.186c-7.186-1.797-12.575-3.593-17.965-3.593-10.779-1.797-19.761 1.796-23.354 7.186z"  horiz-adv-x="1041" />

    
    <glyph glyph-name="shoucang" unicode="&#58906;" d="M191.55 778.77v-789.54L512 103.64999999999998l320.45-114.42V778.77zM768.45 80L512 171.61 255.55 80V714.77h512.9zM352 586.77h320v-64H352z"  horiz-adv-x="1024" />

    
    <glyph glyph-name="chenggong" unicode="&#58927;" d="M512 384m-512 0a512 512 0 1 1 1024 0 512 512 0 1 1-1024 0ZM178.614857 338.139429a42.496 42.496 0 0 0 60.123429 60.050285l85.942857-87.625143a42.496 42.496 0 0 0-60.050286-60.123428L178.614857 338.139429z m561.005714 250.148571a42.496 42.496 0 1 0 65.097143-54.637714L394.459429 170.422857a42.496 42.496 0 0 0-65.097143 54.637714l410.112 363.373715z"  horiz-adv-x="1024" />

    
    <glyph glyph-name="shangchuantupian" unicode="&#59154;" d="M520.4 11.1H214c-49.6 0-90 40.4-90 90v580c0 49.6 40.4 90 90 90h580c49.6 0 90-40.4 90-90v-303.3c0-16.6-13.4-30-30-30s-30 13.4-30 30V681.1c0 16.5-13.5 30-30 30H214c-16.5 0-30-13.5-30-30v-580c0-16.5 13.5-30 30-30h306.4c16.6 0 30-13.4 30-30s-13.4-30-30-30z m325.8 122.8H615.6c-16.6 0-30 13.4-30 30s13.4 30 30 30h230.7c16.6 0 30-13.4 30-30s-13.5-30-30.1-30zM730.9 18.6c-16.6 0-30 13.4-30 30V279.2c0 16.6 13.4 30 30 30s30-13.4 30-30v-230.7c0-16.5-13.4-29.9-30-29.9zM327.8 466.9c-45 0-81.7 36.6-81.7 81.7 0 45 36.6 81.7 81.7 81.7s81.7-36.6 81.7-81.7c0-45-36.7-81.7-81.7-81.7z m0 117.4c-19.7 0-35.7-16-35.7-35.7s16-35.7 35.7-35.7 35.7 16 35.7 35.7-16 35.7-35.7 35.7zM157 217.8c-8.9 0-17.7 3.9-23.6 11.5-10.2 13-8 31.9 5.1 42.1l162.6 127.7c13 10.2 31.9 8 42.1-5.1 10.2-13 8-31.9-5.1-42.1L175.5 224.2c-5.5-4.3-12-6.4-18.5-6.4z m329.5 13.5c-6.2 0-12.5 1.9-17.9 5.9L308.3 356.5c-13.3 9.9-16 28.7-6.2 42s28.7 16 42 6.2l160.3-119.3c13.3-9.9 16-28.7 6.2-42-5.9-7.9-14.9-12.1-24.1-12.1z m0 0c-8.6 0-17.2 3.7-23.1 10.9-10.6 12.8-8.8 31.7 4 42.2l367.5 304c12.8 10.6 31.7 8.8 42.2-4 10.6-12.8 8.8-31.7-4-42.2l-367.5-304c-5.5-4.7-12.3-6.9-19.1-6.9z"  horiz-adv-x="1024" />

    
    <glyph glyph-name="shouhou" unicode="&#59155;" d="M148.02488889 300.37333333000004c-7.50933333 0-14.90488889 2.95822222-20.59377778 8.76088889L46.99022222 393.10222222c-10.92266667 11.37777778-10.46755555 29.35466667 0.79644445 40.16355556 11.37777778 10.92266667 29.35466667 10.46755555 40.16355555-0.79644445l80.55466667-84.08177778c10.92266667-11.37777778 10.46755555-29.35466667-0.79644444-40.16355555-5.46133333-5.23377778-12.62933333-7.85066667-19.68355556-7.85066667z m9.67111111-6.82666666c-7.62311111 0-15.13244445 2.95822222-20.70755555 8.98844444-10.69511111 11.49155555-10.12622222 29.46844445 1.25155555 40.16355556l89.54311111 83.968c11.49155555 10.69511111 29.46844445 10.12622222 40.16355556-1.25155556 10.69511111-11.49155555 10.12622222-29.46844445-1.25155556-40.16355556l-89.54311111-83.968c-5.46133333-5.12-12.40177778-7.73688889-19.456-7.73688888z m391.28177778-335.872c-18.88711111 0-34.13333333 15.24622222-34.13333333 34.13333333s15.24622222 34.13333333 34.13333333 34.13333333c198.08711111 0 359.19644445 161.10933333 359.19644444 359.19644445S747.06488889 744.448 548.97777778 744.448 189.78133333 583.3386666700001 189.78133333 385.25155555c0-18.88711111-15.24622222-34.13333333-34.13333333-34.13333333s-34.13333333 15.24622222-34.13333333 34.13333333c0 57.68533333 11.264 113.664 33.56444444 166.4568889 21.504 50.85866667 52.33777778 96.59733333 91.59111111 135.85066666s84.992 70.08711111 135.85066667 91.59111111c52.67911111 22.30044445 108.77155555 33.56444445 166.45688889 33.56444445s113.664-11.264 166.45688889-33.56444445c50.85866667-21.504 96.59733333-52.33777778 135.85066666-91.59111111s70.08711111-84.992 91.59111112-135.85066666c22.30044445-52.67911111 33.56444445-108.77155555 33.56444444-166.4568889s-11.264-113.664-33.56444444-166.45688888c-21.504-50.85866667-52.33777778-96.59733333-91.59111112-135.85066667s-84.992-70.08711111-135.85066666-91.59111111c-52.67911111-22.41422222-108.65777778-33.67822222-166.45688889-33.67822222z m141.88088889 409.03111111H419.95377778c-18.88711111 0-34.13333333 15.24622222-34.13333333 34.13333333s15.24622222 34.13333333 34.13333333 34.13333334h270.90488889c18.88711111 0 34.13333333-15.24622222 34.13333333-34.13333334s-15.36-34.13333333-34.13333333-34.13333333z m-1.13777778-116.05333333H418.816c-18.88711111 0-34.13333333 15.24622222-34.13333333 34.13333333s15.24622222 34.13333333 34.13333333 34.13333333h270.90488889c18.88711111 0 34.13333333-15.24622222 34.13333333-34.13333333s-15.24622222-34.13333333-34.13333333-34.13333333zM554.21155555 118.10133332999999c-18.88711111 0-34.13333333 15.24622222-34.13333333 34.13333334V400.83911111c0 18.88711111 15.24622222 34.13333333 34.13333333 34.13333334s34.13333333-15.24622222 34.13333334-34.13333334v-248.60444444c0-18.77333333-15.24622222-34.13333333-34.13333334-34.13333334z m1.25155556 275.91111112c-8.98844445 0-17.97688889 3.52711111-24.68977778 10.58133333L400.04266667 541.696c-12.97066667 13.65333333-12.51555555 35.27111111 1.13777778 48.24177778s35.27111111 12.51555555 48.24177777-1.13777778l130.73066667-137.10222222c12.97066667-13.65333333 12.51555555-35.27111111-1.13777778-48.24177778-6.59911111-6.37155555-15.01866667-9.44355555-23.552-9.44355555z m-1.82044444 1.024c-8.64711111 0-17.408 3.29955555-24.00711112 9.89866666-13.42577778 13.312-13.53955555 34.816-0.22755555 48.24177778l136.76088889 138.24c13.312 13.42577778 34.92977778 13.53955555 48.24177778 0.22755556 13.42577778-13.312 13.53955555-34.816 0.22755555-48.24177778L577.87733333 405.16266667c-6.59911111-6.82666667-15.36-10.12622222-24.23466666-10.12622222z"  horiz-adv-x="1024" />

    
    <glyph glyph-name="zixuntousu" unicode="&#58942;" d="M787.29 558.75h-573a20.06 20.06 0 0 1-20-20v-306a24.07 24.07 0 0 1 24-24h171.12l65.61-112 64.66 112h267.61zM455.66 15.69A26.5 26.5 0 0 0 433 28.4l-74.11 121.18-214.74 1.63c-28 2-47.5 24-46.07 50.21v371c0 13.43 4.87 25.85 13.83 34.83A47.71 47.71 0 0 0 146 620.93h618.85c26.81 0 47.27-19.76 48.31-45.95v-374.83c0-31.82-24.61-49-47.76-49L551.5 150l-73.09-121.44a26.51 26.51 0 0 0-22.66-12.87z m331 558.21c-0.39 9.7-7.3 20.82-21.8 20.43H147.25c-13.94 0.62-22.69-8.92-22.66-22V200c-0.59-11 6.85-21.25 19.77-22.2l215.42-1.66a24.11 24.11 0 0 0 20.58-10.75l75.29-123.11L530 165.84c5.14 6.54 12.63 10.75 20.58 10.75l214.25 1.11c8.64-0.25 21.8 5 21.8 22.43zM291.89 379.83m-27.28 0a27.28 27.28 0 1 1 54.56 0 27.28 27.28 0 1 1-54.56 0ZM401.03 379.83m-27.28 0a27.28 27.28 0 1 1 54.56 0 27.28 27.28 0 1 1-54.56 0ZM510.17 379.83m-27.28 0a27.28 27.28 0 1 1 54.56 0 27.28 27.28 0 1 1-54.56 0ZM619.31 379.83m-27.28 0a27.28 27.28 0 1 1 54.56 0 27.28 27.28 0 1 1-54.56 0ZM928 713.24c-1 26.2-21.5 46-48.31 46H260.84a47.67 47.67 0 0 1-34.14-13.72c-9-9-13.87-21.39-13.83-34.82v-49.92h26.54v49.9c0 13 8.72 22.58 22.66 22h617.56c14.5 0.39 21.42-10.74 21.8-20.44v-373.81c0-17.42-13.16-22.69-21.8-22.43l-26.6-0.22v-26.55l27.21 0.23c23.15 0 47.76 17.14 47.76 49zM226.13 660.76m-13.28 0a13.28 13.28 0 1 1 26.56 0 13.28 13.28 0 1 1-26.56 0ZM853.03 302.55m-13.28 0a13.28 13.28 0 1 1 26.56 0 13.28 13.28 0 1 1-26.56 0Z"  horiz-adv-x="1024" />

    
    </font>
</defs>
</svg>
